<svg xmlns="http://www.w3.org/2000/svg" width="168" height="49.251" viewBox="0 0 168 49.251">
  <g id="Group_1" data-name="Group 1" transform="translate(-592 -483)">
    <path id="Path_1" data-name="Path 1" d="M231.6,179.44c4.082.49,10.16-1.633,16.941-5.8l3.428,3.811c-2.059.884-3.774,1.8-5.6,2.372a63.359,63.359,0,0,1-21.132,2.706,1.7,1.7,0,0,1-.618-.15,1.5,1.5,0,0,1-.232-2.613,3.564,3.564,0,0,1,.694-.385c1.94-.785,4.057-1.164,5.93-2.066a4.717,4.717,0,0,0,2.095-2.593,2.766,2.766,0,0,0-.788-2.486,3.026,3.026,0,0,0-2.752-.229,58.266,58.266,0,0,0-7.086,5.365c-3.667,3.307-3.527,3.326-7.215-.086a52.033,52.033,0,0,0-6.332-4.97c-1.147-.77-2.708-1.473-3.841.252a2.991,2.991,0,0,0,1.126,4.337,37.033,37.033,0,0,0,5.6,2.288,13.583,13.583,0,0,1,2.1.534,1.86,1.86,0,0,1,.4.325,1.474,1.474,0,0,1-.255,2.264.823.823,0,0,1-.4.133c-9.247.266-18.351-.4-26.83-4.619-.19-.095-.36-.23-.733-.471l3.013-3.691c5.285,3.039,10.61,5.711,16.917,5.672a30.786,30.786,0,0,1-2.46-2.01,4.923,4.923,0,0,1-.584-6.712,4.368,4.368,0,0,1,6.156-1.407,55.439,55.439,0,0,1,8.1,6.185c1.338,1.206,1.939,1.291,3.3.049a47.119,47.119,0,0,1,7.7-5.988c2.942-1.732,5.465-.919,6.8,1.488,1.574,2.831.92,5.359-1.909,7.383C232.724,178.627,232.317,178.921,231.6,179.44Z" transform="translate(405.897 314.512)" fill="#fff"/>
    <text id="GiftCards.com" transform="translate(592 525.251)" fill="#fff" font-size="30" font-family="Raleway-ExtraBold, Raleway" font-weight="800"><tspan x="0" y="0">Gift</tspan><tspan y="0" font-family="Raleway-Regular, Raleway" font-weight="400">Cards</tspan><tspan y="0" font-size="15" font-family="Raleway-Regular, Raleway" font-weight="400">.com</tspan></text>
  </g>
</svg>
