<svg xmlns="http://www.w3.org/2000/svg" width="31.556" height="36" viewBox="0 0 31.556 36">
  <g id="handbag-fill" transform="translate(-2.222)">
    <path id="Path_2" data-name="Path 2" d="M18,2.25a4.5,4.5,0,0,0-4.5,4.5v4.5H11.25V6.75a6.75,6.75,0,1,1,13.5,0v4.5H22.5V6.75A4.5,4.5,0,0,0,18,2.25Z" fill="#fff"/>
    <path id="Path_3" data-name="Path 3" d="M7.661,11.25A3.375,3.375,0,0,0,4.3,14.288L2.25,29.817A5.625,5.625,0,0,0,7.848,36h20.3a5.625,5.625,0,0,0,5.6-6.185L31.7,14.29a3.375,3.375,0,0,0-3.359-3.04H24.75v5.625a1.125,1.125,0,0,1-2.25,0V11.25h-9v5.625a1.125,1.125,0,0,1-2.25,0V11.25Z" fill="#fff"/>
  </g>
</svg>
