<svg id="cash" xmlns="http://www.w3.org/2000/svg" width="38.622" height="24.139" viewBox="0 0 38.622 24.139">
  <path id="Path_411" data-name="Path 411" d="M36.208,9.164H2.414V28.475H36.208ZM2.414,6.75A2.414,2.414,0,0,0,0,9.164V28.475a2.414,2.414,0,0,0,2.414,2.414H36.208a2.414,2.414,0,0,0,2.414-2.414V9.164A2.414,2.414,0,0,0,36.208,6.75Z" transform="translate(0 -6.75)" fill-rule="evenodd"/>
  <path id="Path_412" data-name="Path 412" d="M31.216,9a4.828,4.828,0,0,0,4.828,4.828V9ZM7.078,9A4.828,4.828,0,0,1,2.25,13.828V9ZM31.216,28.311a4.828,4.828,0,0,1,4.828-4.828v4.828Zm-24.139,0A4.828,4.828,0,0,0,2.25,23.483v4.828Zm16.9-9.655a4.828,4.828,0,1,1-4.828-4.828A4.828,4.828,0,0,1,23.975,18.655Z" transform="translate(0.164 -6.586)"/>
</svg>
