<svg xmlns="http://www.w3.org/2000/svg" width="7.281" height="7.897" viewBox="0 0 7.281 7.897">
  <g id="Group_537" data-name="Group 537" transform="translate(-931.283 -475)">
    <path id="Path_857" data-name="Path 857" d="M935.275,2305.694a.319.319,0,0,1-.226-.545l3.4-3.4-3.4-3.4a.319.319,0,0,1,.451-.451l3.855,3.855L935.5,2305.6A.317.317,0,0,1,935.275,2305.694Z" transform="translate(-0.792 -1822.796)" fill="#fff"/>
    <path id="Path_858" data-name="Path 858" d="M935.275,2305.694a.319.319,0,0,1-.226-.545l3.4-3.4-3.4-3.4a.319.319,0,0,1,.451-.451l3.855,3.855L935.5,2305.6A.317.317,0,0,1,935.275,2305.694Z" transform="translate(-3.673 -1822.796)" fill="#fff"/>
  </g>
</svg>
