<svg id="gift" xmlns="http://www.w3.org/2000/svg" width="20.5" height="18.702" viewBox="0 0 20.5 18.702">
  <path id="Path_6" data-name="Path 6" d="M16.908,3.779a2.8,2.8,0,0,0-3.953,0L11.638,5.1c-.056.056-.11.114-.16.173q-.076-.09-.16-.173L10,3.779A2.8,2.8,0,1,0,6.047,7.731l.818.82H1.5v5.591H3.364V21.6H20.136V14.142H22V8.551H16.09l.818-.819a2.8,2.8,0,0,0,0-3.953ZM14.273,7.731,15.59,6.413A.932.932,0,1,0,14.273,5.1L12.955,6.413a.932.932,0,1,0,1.318,1.318ZM10,6.413,8.682,5.1A.932.932,0,1,0,7.364,6.415L8.682,7.732A.932.932,0,1,0,10,6.414Zm10.137,4v1.864H3.364V10.415ZM12.6,14.142h5.669v5.591H12.6Zm-1.709,0v5.591H5.227V14.142H10.9Z" transform="translate(-1.5 -2.894)" fill="#333" fill-rule="evenodd"/>
</svg>
