<svg xmlns="http://www.w3.org/2000/svg" width="21.3" height="21.25" viewBox="0 0 21.3 21.25">
  <path id="local-offer" d="M20.651,10.426a2.083,2.083,0,0,1,.648,1.522,1.923,1.923,0,0,1-.648,1.471L13.219,20.9a2.171,2.171,0,0,1-1.522.6,2,2,0,0,1-1.471-.6L.648,11.324A2.055,2.055,0,0,1,0,9.827V2.345A2.011,2.011,0,0,1,.624.874,2.073,2.073,0,0,1,2.145.25H9.577a2.03,2.03,0,0,1,1.5.6ZM3.716,5.537a1.608,1.608,0,0,0,1.147-.449,1.482,1.482,0,0,0,.474-1.122A1.619,1.619,0,0,0,3.716,2.344a1.481,1.481,0,0,0-1.122.475,1.61,1.61,0,0,0-.449,1.148A1.534,1.534,0,0,0,3.716,5.538Z" transform="translate(0 -0.25)" fill="#14a800"/>
</svg>
