<svg xmlns="http://www.w3.org/2000/svg" width="17.619" height="17.619" viewBox="0 0 17.619 17.619">
  <path id="undo" d="M17.619,8.809a8.569,8.569,0,0,1-.7,3.418,8.706,8.706,0,0,1-4.692,4.692,8.569,8.569,0,0,1-3.418.7,8.749,8.749,0,0,1-3.751-.832A8.611,8.611,0,0,1,2.03,14.442a.408.408,0,0,1-.074-.258.339.339,0,0,1,.1-.235l1.572-1.583a.412.412,0,0,1,.287-.1.357.357,0,0,1,.264.138,5.835,5.835,0,0,0,6.91,1.818,5.819,5.819,0,0,0,3.132-3.132,5.746,5.746,0,0,0,.465-2.277,5.683,5.683,0,0,0-.464-2.277,5.959,5.959,0,0,0-1.256-1.875A5.886,5.886,0,0,0,11.086,3.4a5.737,5.737,0,0,0-2.277-.464,5.824,5.824,0,0,0-2.156.407A5.7,5.7,0,0,0,4.818,4.508L6.389,6.091a.652.652,0,0,1,.161.791.686.686,0,0,1-.677.459H.734a.707.707,0,0,1-.516-.218A.7.7,0,0,1,0,6.607V1.468A.686.686,0,0,1,.459.791.652.652,0,0,1,1.25.952L2.742,2.431A8.9,8.9,0,0,1,5.546.637,8.689,8.689,0,0,1,12.227.7a8.706,8.706,0,0,1,4.692,4.692,8.569,8.569,0,0,1,.7,3.418Z" fill="#14a800"/>
</svg>
