<svg xmlns="http://www.w3.org/2000/svg" xmlns:xlink="http://www.w3.org/1999/xlink" width="1956.303" height="515" viewBox="0 0 1956.303 515">
  <defs>
    <linearGradient id="linear-gradient" x1="1.003" y1="0.208" x2="0.398" y2="0.591" gradientUnits="objectBoundingBox">
      <stop offset="0.004" stop-color="#e38ddd"/>
      <stop offset="1" stop-color="#9571f6"/>
    </linearGradient>
    <linearGradient id="linear-gradient-2" x1="0.614" y1="0.23" x2="0.417" y2="0.78" gradientUnits="objectBoundingBox">
      <stop offset="0" stop-color="#aa80f9"/>
      <stop offset="0.996" stop-color="#6165d7"/>
    </linearGradient>
    <linearGradient id="linear-gradient-3" x1="0.811" y1="-0.054" x2="0.503" y2="0.431" xlink:href="#linear-gradient"/>
    <linearGradient id="linear-gradient-4" x1="0.748" y1="0.148" x2="0.22" y2="0.948" xlink:href="#linear-gradient"/>
    <linearGradient id="linear-gradient-5" x1="0.518" y1="0.046" x2="0.481" y2="1.073" xlink:href="#linear-gradient"/>
    <linearGradient id="linear-gradient-6" x1="0.08" y1="0.7" x2="0.517" y2="0.537" xlink:href="#linear-gradient-2"/>
    <linearGradient id="linear-gradient-7" x1="0.228" y1="-0.008" x2="1.208" y2="1.199" xlink:href="#linear-gradient-2"/>
    <clipPath id="clip-path">
      <path id="Path_11" data-name="Path 11" d="M2094.824,858.993c8.56-18.9,18.356-48.108,14.3-82.158-4.656-39.1-23.318-48.848-36.389-91.521-18.659-60.915,14.2-100-9.735-120.6-11.67-10.045-31.5-12.207-44.675-4.826-37.584,21.057-39.78,130.324,10.981,178.571,22.957,21.821,45.047,21.928,61.147,48.686C2104.682,810.79,2100.25,839.462,2094.824,858.993Z" transform="translate(-1990.607 -555.507)" fill="url(#linear-gradient)"/>
    </clipPath>
    <clipPath id="clip-path-2">
      <path id="Path_17" data-name="Path 17" d="M1890.632,931.857c4.445-15.93,8.739-41.1-2-65.187-18.741-42.028-62.153-33.478-97.741-80.19-28.7-37.675-15.6-63.11-49.056-89.71-5.6-4.452-35.094-28.811-60.085-18.784-14.083,5.65-20.488,19.693-21.691,22.33-18.175,39.845,16.895,109.13,68.552,144.689,29.679,20.43,40.454,15.977,93.78,41.837A313.984,313.984,0,0,1,1890.632,931.857Z" transform="translate(-1655.201 -675.587)" fill="url(#linear-gradient-2)"/>
    </clipPath>
    <linearGradient id="linear-gradient-10" x1="-4.494" y1="1.419" x2="-5.736" y2="2.944" xlink:href="#linear-gradient"/>
    <clipPath id="clip-path-3">
      <path id="Path_24" data-name="Path 24" d="M3099.729,755.518c-12.074-10.459-28.333-27.728-36.468-52.846-9.34-28.842.571-41.672-4.036-75.724-6.575-48.609-42.142-65.359-32.043-87.472,4.924-10.784,18.1-18.684,29.686-17.767,33.067,2.618,69.8,78.322,49.847,128.413-9.025,22.655-24.438,29.846-27.076,53.745C3077.308,724.985,3089.644,743.608,3099.729,755.518Z" transform="translate(-3025.389 -521.638)" fill="url(#linear-gradient-3)"/>
    </clipPath>
    <clipPath id="clip-path-4">
      <path id="Path_30" data-name="Path 30" d="M3162.3,737.268c-8.239-9.708-19.35-25.924-19.6-46.231-.434-35.428,32.678-43.434,42.518-87.565,7.936-35.593-9.418-49.16,5.406-78.538,2.481-4.917,15.26-31.453,35.966-32.492,11.668-.586,20.672,7.172,22.362,8.628,25.546,22.009,23.341,81.758-1.328,123.266-14.173,23.848-23.143,24.205-52.1,59.468A241.757,241.757,0,0,0,3162.3,737.268Z" transform="translate(-3142.7 -492.41)" fill="url(#linear-gradient-4)"/>
    </clipPath>
    <linearGradient id="linear-gradient-13" x1="-3.961" y1="1.414" x2="-5.501" y2="2.506" xlink:href="#linear-gradient"/>
    <linearGradient id="linear-gradient-14" x1="0.332" y1="0.311" x2="1.051" y2="0.993" gradientUnits="objectBoundingBox">
      <stop offset="0" stop-color="#444b8c"/>
      <stop offset="0.996" stop-color="#26264f"/>
    </linearGradient>
    <linearGradient id="linear-gradient-15" x1="0.879" y1="0.041" x2="-0.08" y2="1.169" xlink:href="#linear-gradient-2"/>
    <linearGradient id="linear-gradient-16" x1="0.572" y1="-7.393" x2="0.485" y2="2.024" xlink:href="#linear-gradient"/>
    <linearGradient id="linear-gradient-17" x1="0.934" y1="0.071" x2="-0.244" y2="1.233" xlink:href="#linear-gradient"/>
    <linearGradient id="linear-gradient-18" x1="0.122" y1="0.072" x2="1.346" y2="1.46" gradientUnits="objectBoundingBox">
      <stop offset="0" stop-color="#ffc444"/>
      <stop offset="0.314" stop-color="#fba94a"/>
      <stop offset="0.996" stop-color="#f36f56"/>
    </linearGradient>
    <linearGradient id="linear-gradient-19" x1="0.275" y1="0.504" x2="2.544" y2="0.432" xlink:href="#linear-gradient-18"/>
    <linearGradient id="linear-gradient-20" x1="0.369" y1="0.967" x2="1.705" y2="-3.322" xlink:href="#linear-gradient-18"/>
    <linearGradient id="linear-gradient-21" x1="0.945" y1="0.114" x2="0.274" y2="0.9" xlink:href="#linear-gradient-18"/>
    <linearGradient id="linear-gradient-22" x1="1.054" y1="-0.596" x2="0.38" y2="1.034" xlink:href="#linear-gradient-18"/>
    <linearGradient id="linear-gradient-23" x1="0.353" y1="0.561" x2="1.687" y2="0.327" xlink:href="#linear-gradient-18"/>
    <linearGradient id="linear-gradient-24" x1="0.388" y1="0.531" x2="1.791" y2="0.182" xlink:href="#linear-gradient-18"/>
    <linearGradient id="linear-gradient-25" x1="0.862" y1="1.569" x2="0.469" y2="0.407" xlink:href="#linear-gradient-18"/>
    <linearGradient id="linear-gradient-26" x1="4.562" y1="2.569" x2="-8.64" y2="-4.369" gradientUnits="objectBoundingBox">
      <stop offset="0" stop-color="#ff9085"/>
      <stop offset="1" stop-color="#fb6fbb"/>
    </linearGradient>
    <linearGradient id="linear-gradient-27" x1="13.236" y1="2.334" x2="-34.47" y2="-4.461" xlink:href="#linear-gradient-26"/>
    <linearGradient id="linear-gradient-28" x1="6.243" y1="2.102" x2="-17.096" y2="-4.504" xlink:href="#linear-gradient-26"/>
    <linearGradient id="linear-gradient-29" x1="5.692" y1="2.079" x2="-18.441" y2="-5.393" xlink:href="#linear-gradient-26"/>
    <linearGradient id="linear-gradient-30" x1="3.758" y1="1.957" x2="-16.069" y2="-7.4" xlink:href="#linear-gradient-26"/>
    <linearGradient id="linear-gradient-31" x1="2.674" y1="1.676" x2="-14.919" y2="-7.656" xlink:href="#linear-gradient-26"/>
    <linearGradient id="linear-gradient-32" x1="2.792" y1="1.34" x2="-23.027" y2="-8.164" xlink:href="#linear-gradient-26"/>
    <linearGradient id="linear-gradient-33" x1="1.523" y1="0.876" x2="-13.978" y2="-5.722" xlink:href="#linear-gradient-26"/>
    <linearGradient id="linear-gradient-34" x1="0.585" y1="0.21" x2="-0.01" y2="2.527" xlink:href="#linear-gradient-26"/>
    <linearGradient id="linear-gradient-35" x1="0.607" y1="0.39" x2="1.474" y2="-0.356" xlink:href="#linear-gradient-26"/>
    <linearGradient id="linear-gradient-36" x1="0" y1="0.5" x2="1" y2="0.5" xlink:href="#linear-gradient-26"/>
    <linearGradient id="linear-gradient-37" x1="2.639" y1="0.39" x2="0.476" y2="0.499" xlink:href="#linear-gradient-26"/>
    <linearGradient id="linear-gradient-38" x1="1.023" y1="0.35" x2="0.482" y2="0.495" xlink:href="#linear-gradient-18"/>
    <linearGradient id="linear-gradient-39" x1="0.497" y1="0.454" x2="0.95" y2="1.678" xlink:href="#linear-gradient-18"/>
    <linearGradient id="linear-gradient-40" x1="0.835" y1="-0.133" x2="0.133" y2="0.926" xlink:href="#linear-gradient-26"/>
    <linearGradient id="linear-gradient-41" x1="0.022" y1="0.366" x2="0.945" y2="0.94" gradientUnits="objectBoundingBox">
      <stop offset="0" stop-color="#ab316d"/>
      <stop offset="1" stop-color="#792d3d"/>
    </linearGradient>
    <linearGradient id="linear-gradient-42" x1="1.125" y1="0.758" x2="0.294" y2="0.287" xlink:href="#linear-gradient-41"/>
    <linearGradient id="linear-gradient-43" x1="0.345" y1="0.911" x2="0.8" y2="-0.386" xlink:href="#linear-gradient-41"/>
    <linearGradient id="linear-gradient-44" x1="0.531" y1="1.13" x2="0.463" y2="0.037" xlink:href="#linear-gradient-41"/>
    <linearGradient id="linear-gradient-45" x1="0.68" y1="1.384" x2="0.446" y2="0.053" xlink:href="#linear-gradient-41"/>
    <linearGradient id="linear-gradient-46" x1="0" y1="0.5" x2="1" y2="0.5" xlink:href="#linear-gradient-41"/>
    <linearGradient id="linear-gradient-47" x1="0.337" y1="0.941" x2="0.792" y2="-0.401" xlink:href="#linear-gradient-41"/>
    <linearGradient id="linear-gradient-48" x1="1.125" y1="0.738" x2="0.294" y2="0.228" xlink:href="#linear-gradient-41"/>
    <linearGradient id="linear-gradient-49" x1="1.025" y1="-0.118" x2="0.063" y2="1.047" xlink:href="#linear-gradient-41"/>
    <linearGradient id="linear-gradient-50" x1="-0.309" y1="0.063" x2="0.859" y2="0.623" xlink:href="#linear-gradient-18"/>
    <linearGradient id="linear-gradient-51" x1="0.891" y1="0.027" x2="-0.096" y2="1.165" xlink:href="#linear-gradient-18"/>
    <linearGradient id="linear-gradient-52" x1="0.935" y1="0.051" x2="-0.273" y2="1.239" xlink:href="#linear-gradient-18"/>
    <linearGradient id="linear-gradient-53" x1="0.385" y1="0.363" x2="0.668" y2="1.458" xlink:href="#linear-gradient-14"/>
    <linearGradient id="linear-gradient-54" x1="0.51" y1="0.391" x2="0.99" y2="0.938" xlink:href="#linear-gradient-14"/>
    <linearGradient id="linear-gradient-55" x1="0.378" y1="0.47" x2="0.755" y2="1.069" xlink:href="#linear-gradient-14"/>
    <linearGradient id="linear-gradient-56" x1="0.46" y1="0.197" x2="0.942" y2="0.922" xlink:href="#linear-gradient-14"/>
    <linearGradient id="linear-gradient-57" x1="0.307" y1="0.452" x2="0.736" y2="1.062" xlink:href="#linear-gradient-14"/>
    <linearGradient id="linear-gradient-58" x1="0.537" y1="0.44" x2="1.237" y2="1.013" xlink:href="#linear-gradient-14"/>
    <linearGradient id="linear-gradient-59" x1="13.388" y1="-30.508" x2="14.246" y2="-28.029" gradientUnits="objectBoundingBox">
      <stop offset="0" stop-color="#ffc444"/>
      <stop offset="0.996" stop-color="#f36f56"/>
    </linearGradient>
    <linearGradient id="linear-gradient-60" x1="-1.76" y1="5.444" x2="-0.74" y2="5.444" xlink:href="#linear-gradient-2"/>
    <linearGradient id="linear-gradient-61" x1="-1.773" y1="5.504" x2="-0.753" y2="5.504" xlink:href="#linear-gradient-2"/>
    <linearGradient id="linear-gradient-62" x1="-0.202" y1="1.047" x2="0.813" y2="1.047" xlink:href="#linear-gradient-14"/>
    <linearGradient id="linear-gradient-63" x1="0.054" y1="0.031" x2="1.05" y2="0.031" xlink:href="#linear-gradient-14"/>
    <linearGradient id="linear-gradient-64" x1="4.115" y1="1.799" x2="-0.151" y2="0.28" gradientUnits="objectBoundingBox">
      <stop offset="0" stop-color="#311944"/>
      <stop offset="1" stop-color="#6b3976"/>
    </linearGradient>
    <linearGradient id="linear-gradient-65" x1="3.461" y1="-2.195" x2="4.513" y2="-1.745" xlink:href="#linear-gradient-2"/>
    <linearGradient id="linear-gradient-66" x1="1.29" y1="1.028" x2="-0.186" y2="0.189" xlink:href="#linear-gradient-64"/>
    <linearGradient id="linear-gradient-67" x1="0.091" y1="0.353" x2="0.847" y2="1.185" xlink:href="#linear-gradient-2"/>
    <linearGradient id="linear-gradient-68" x1="-58.78" y1="2.365" x2="-58.703" y2="0.573" xlink:href="#linear-gradient-59"/>
    <linearGradient id="linear-gradient-69" x1="0.185" y1="1.387" x2="0.27" y2="-0.404" xlink:href="#linear-gradient-59"/>
    <linearGradient id="linear-gradient-70" x1="-157.414" y1="-1.995" x2="-157.462" y2="1.028" xlink:href="#linear-gradient-59"/>
    <linearGradient id="linear-gradient-71" x1="8.941" y1="4.838" x2="-0.914" y2="-0.102" xlink:href="#linear-gradient-64"/>
    <linearGradient id="linear-gradient-72" x1="-0.015" y1="0.074" x2="1.474" y2="1.769" xlink:href="#linear-gradient-2"/>
    <linearGradient id="linear-gradient-73" x1="0.241" y1="0.113" x2="1.125" y2="1.796" xlink:href="#linear-gradient-59"/>
    <linearGradient id="linear-gradient-74" x1="0.086" y1="0.109" x2="0.842" y2="1.266" xlink:href="#linear-gradient-2"/>
    <linearGradient id="linear-gradient-75" x1="0.41" y1="0.632" x2="1.403" y2="-1.129" xlink:href="#linear-gradient-41"/>
    <linearGradient id="linear-gradient-76" x1="-110.872" y1="-0.047" x2="-109.751" y2="1.823" xlink:href="#linear-gradient-59"/>
    <linearGradient id="linear-gradient-77" x1="-24.009" y1="0.95" x2="-23.739" y2="-0.004" xlink:href="#linear-gradient-59"/>
    <linearGradient id="linear-gradient-78" x1="-215.135" y1="-27.447" x2="-214.083" y2="-25.998" xlink:href="#linear-gradient-14"/>
    <linearGradient id="linear-gradient-79" x1="-379.219" y1="-11.577" x2="-379.219" y2="-12.929" xlink:href="#linear-gradient-59"/>
    <linearGradient id="linear-gradient-80" x1="-271.99" y1="-34.339" x2="-270.658" y2="-32.551" xlink:href="#linear-gradient-14"/>
    <linearGradient id="linear-gradient-81" x1="-219.944" y1="-0.515" x2="-218.85" y2="0.793" xlink:href="#linear-gradient-14"/>
    <linearGradient id="linear-gradient-82" x1="-476.066" y1="1.222" x2="-476.066" y2="-0.193" xlink:href="#linear-gradient-59"/>
    <linearGradient id="linear-gradient-83" x1="-1.207" y1="1.09" x2="-1.863" y2="-0.252" xlink:href="#linear-gradient-14"/>
    <linearGradient id="linear-gradient-84" x1="-21.545" y1="0.91" x2="-23.175" y2="0.048" xlink:href="#linear-gradient-59"/>
    <linearGradient id="linear-gradient-85" x1="-272.855" y1="-1.298" x2="-271.495" y2="0.479" xlink:href="#linear-gradient-14"/>
    <linearGradient id="linear-gradient-86" x1="-48.681" y1="-0.003" x2="-47.333" y2="1.837" xlink:href="#linear-gradient-59"/>
    <linearGradient id="linear-gradient-87" x1="-585.473" y1="-2.785" x2="-569.471" y2="10.462" xlink:href="#linear-gradient-59"/>
    <linearGradient id="linear-gradient-88" x1="-20.097" y1="1.522" x2="-21.762" y2="0.051" xlink:href="#linear-gradient-59"/>
    <linearGradient id="linear-gradient-89" x1="-15.319" y1="6.084" x2="-14.289" y2="4.337" xlink:href="#linear-gradient-41"/>
    <linearGradient id="linear-gradient-90" x1="0.034" y1="0.812" x2="1.234" y2="-0.433" gradientUnits="objectBoundingBox">
      <stop offset="0" stop-color="#444b8c"/>
      <stop offset="0.996" stop-color="#3e4177"/>
    </linearGradient>
    <linearGradient id="linear-gradient-91" x1="0.562" y1="0.408" x2="-0.293" y2="1.718" xlink:href="#linear-gradient-90"/>
    <linearGradient id="linear-gradient-92" x1="21.316" y1="-8.504" x2="22.144" y2="-8.504" gradientUnits="objectBoundingBox">
      <stop offset="0" stop-color="#40447e"/>
      <stop offset="0.996" stop-color="#3c3b6b"/>
    </linearGradient>
    <linearGradient id="linear-gradient-93" x1="23.454" y1="-25.388" x2="24.47" y2="-25.388" xlink:href="#linear-gradient-41"/>
    <linearGradient id="linear-gradient-94" x1="0.549" y1="0.207" x2="1.57" y2="0.207" xlink:href="#linear-gradient-92"/>
    <linearGradient id="linear-gradient-95" x1="0.788" y1="0.955" x2="0.323" y2="0.211" xlink:href="#linear-gradient-26"/>
    <linearGradient id="linear-gradient-96" x1="0.68" y1="0.226" x2="0.331" y2="1.053" xlink:href="#linear-gradient-26"/>
    <linearGradient id="linear-gradient-97" x1="-160.777" y1="9.463" x2="-160.694" y2="7.75" xlink:href="#linear-gradient-41"/>
    <linearGradient id="linear-gradient-98" x1="0.884" y1="1.204" x2="0.226" y2="-0.115" xlink:href="#linear-gradient-41"/>
    <linearGradient id="linear-gradient-99" x1="-0.309" y1="0.063" x2="0.859" y2="0.623" xlink:href="#linear-gradient-18"/>
    <linearGradient id="linear-gradient-101" x1="0.514" y1="0.486" x2="1.565" y2="0.264" gradientUnits="objectBoundingBox">
      <stop offset="0" stop-color="#ffc444"/>
      <stop offset="0.194" stop-color="#fdb348"/>
      <stop offset="0.314" stop-color="#fba94a"/>
      <stop offset="0.996" stop-color="#f36f56"/>
    </linearGradient>
    <linearGradient id="linear-gradient-102" x1="0.385" y1="0.363" x2="0.668" y2="1.458" xlink:href="#linear-gradient-26"/>
    <linearGradient id="linear-gradient-103" x1="1.018" y1="1.003" x2="0.976" y2="0.952" xlink:href="#linear-gradient-26"/>
    <linearGradient id="linear-gradient-104" x1="0.374" y1="0.422" x2="0.578" y2="0.953" xlink:href="#linear-gradient-26"/>
    <linearGradient id="linear-gradient-105" x1="0.46" y1="0.197" x2="0.942" y2="0.922" xlink:href="#linear-gradient-26"/>
    <linearGradient id="linear-gradient-106" x1="0.307" y1="0.452" x2="0.736" y2="1.062" xlink:href="#linear-gradient-26"/>
    <linearGradient id="linear-gradient-107" x1="0.537" y1="0.44" x2="1.237" y2="1.013" xlink:href="#linear-gradient-26"/>
    <linearGradient id="linear-gradient-108" x1="58.277" y1="-148.298" x2="58.617" y2="-147.518" xlink:href="#linear-gradient-41"/>
    <linearGradient id="linear-gradient-109" x1="15.166" y1="-23.537" x2="14.651" y2="-24.75" xlink:href="#linear-gradient-26"/>
    <linearGradient id="linear-gradient-110" x1="0" y1="0.5" x2="1" y2="0.5" xlink:href="#linear-gradient-90"/>
    <clipPath id="clip-path-5">
      <path id="Path_156" data-name="Path 156" d="M2952.14,1518.072c-2.278.462-7.866-7-6.3-13.16,1.727-6.771,10.574-5.921,13.357-13.3,2.273-6.029-2.734-8.717-1.115-16.944a21.81,21.81,0,0,1,10.224-14.308c6.906-3.855,11.515-.223,16-4.264,5.279-4.756,2.664-13.181,4.7-13.572,2.965-.568,12.667,16.433,7.1,24.615-4.682,6.878-16.1,1.561-21.87,9.232-4.853,6.451,1.421,12.6-3.969,20.208-4.438,6.265-11.106,4.661-15.015,11.965C2952.591,1513.527,2953.779,1517.739,2952.14,1518.072Z" transform="translate(-2945.57 -1442.506)" fill="url(#linear-gradient-5)"/>
    </clipPath>
    <clipPath id="clip-path-6">
      <path id="Path_162" data-name="Path 162" d="M2933.125,1618.007a21.962,21.962,0,0,1-5.588-2.947c-2.249-1.641-4.4-3.21-5.222-5.843-.95-3.041.942-4-.009-6.782-1.081-3.167-3.949-2.843-5.068-6.133-.76-2.233-.109-4.353.467-6.227.69-2.247,2.261-5.477,3.287-5.268,1.217.247-.417,4.9,2.351,8.115,2.095,2.431,4.531,1.5,6.6,4.339a7.434,7.434,0,0,1,1.5,5.087c-.418,3.138-2.921,3.971-3.516,6.57C2927.508,1610.773,2928.2,1613.628,2933.125,1618.007Z" transform="translate(-2916.892 -1584.797)" fill="url(#linear-gradient-6)"/>
    </clipPath>
    <clipPath id="clip-path-7">
      <path id="Path_168" data-name="Path 168" d="M2935.45,1457.016c-1.457.679,1.064,4.58-.021,10.979-1.728,10.174-10.186,12.7-9.463,20.625a17.792,17.792,0,0,0,2.246,7.215c.61.969,1.07,1.421,3.188,4.286.2.266,2.1,2.835,2.559,3.547,3.14,4.818-3.251,11.876-1.311,18.775,1.34,4.765,4.864,8,7.752,10.04-5.42-8.519-5.358-13.981-4.165-17.462,1.658-4.828,5.418-5.619,7.422-11.7,1.4-4.245.093-5.459.126-13.264.052-12.07,3.2-13.378,1.6-20C2943.512,1462.28,2937.269,1456.168,2935.45,1457.016Z" transform="translate(-2925.922 -1456.937)" fill="url(#linear-gradient-7)"/>
    </clipPath>
    <linearGradient id="linear-gradient-114" x1="13.47" y1="-17.504" x2="13.165" y2="-16.649" xlink:href="#linear-gradient-2"/>
    <clipPath id="clip-path-8">
      <path id="Path_174" data-name="Path 174" d="M2956.059,1598.739a14.678,14.678,0,0,1-6.276-5.93c-3-5.782-.054-12.522,3.9-15.735,4.936-4.011,8.914-.473,13.574-4.25,5.292-4.29,1.859-10.231,7.361-14.68,3.734-3.02,8.612-2.948,12.925-2.884,5.17.077,13.165,1.426,13.743,3.752.686,2.759-10.227,2.166-13.97,10.095-2.835,6,1.4,10.638-2.278,16.848-.5.841-3.27,5.526-8.727,6.393-7.137,1.133-12.213-5.32-16.575-3.431C2957.967,1589.683,2956.075,1591.928,2956.059,1598.739Z" transform="translate(-2948.552 -1555.241)" fill="none"/>
    </clipPath>
  </defs>
  <g id="Group_582" data-name="Group 582" transform="translate(36.303 -105)">
    <rect id="Rectangle_4" data-name="Rectangle 4" width="1920" height="500" transform="translate(0 120)" fill="#14a800" opacity="0.1"/>
    <g id="Group_65" data-name="Group 65" transform="translate(-815.2 -333.41)">
      <g id="Group_13" data-name="Group 13" transform="translate(1655.2 513.546)">
        <g id="Group_7" data-name="Group 7" transform="translate(112.354 0)">
          <g id="Group_6" data-name="Group 6">
            <path id="Path_6" data-name="Path 6" d="M2094.824,858.993c8.56-18.9,18.356-48.108,14.3-82.158-4.656-39.1-23.318-48.848-36.389-91.521-18.659-60.915,14.2-100-9.735-120.6-11.67-10.045-31.5-12.207-44.675-4.826-37.584,21.057-39.78,130.324,10.981,178.571,22.957,21.821,45.047,21.928,61.147,48.686C2104.682,810.79,2100.25,839.462,2094.824,858.993Z" transform="translate(-1990.607 -555.507)" fill="url(#linear-gradient)"/>
            <g id="Group_5" data-name="Group 5" clip-path="url(#clip-path)">
              <g id="Group_4" data-name="Group 4" transform="translate(-0.252 -9.028)" opacity="0.5" style="mix-blend-mode: soft-light;isolation: isolate">
                <path id="Path_7" data-name="Path 7" d="M2174.861,792.192a149.469,149.469,0,0,0-5.763-24.976c-6.028-18.626-13.75-29.353-23.527-42.932a348.552,348.552,0,0,1-21.7-33.073c-15.126-26.492-19.711-35.72-23.149-50.169a138.191,138.191,0,0,1,.483-65.173,134.739,134.739,0,0,1,22.69-47.311l.579.432a134.02,134.02,0,0,0-22.569,47.058,137.459,137.459,0,0,0-.48,64.826c3.417,14.36,7.987,23.557,23.073,49.978a348.245,348.245,0,0,0,21.661,33.01c9.814,13.631,17.566,24.4,23.628,43.132a150.216,150.216,0,0,1,5.792,25.1Z" transform="translate(-2061.148 -528.557)" fill="#fff"/>
                <path id="Path_8" data-name="Path 8" d="M2043.378,655.8l-.489-.338a73.174,73.174,0,0,1-17.749-19.436c-7.321-11.6-14.58-30.622-7.579-55.373l.695.2c-6.927,24.495.252,43.315,7.5,54.79a73.789,73.789,0,0,0,17.065,18.875c2.789-20.039,17.1-31.669,28.679-37.913a89.53,89.53,0,0,1,24.964-8.872l.116.713a88.766,88.766,0,0,0-24.754,8.8c-11.538,6.226-25.825,17.865-28.369,37.963Z" transform="translate(-2006.392 -563.202)" fill="#fff"/>
                <path id="Path_9" data-name="Path 9" d="M2029.947,882.326c-11.82,0-27.2-3-40.091-15.493l.5-.519c23.189,22.469,54.59,13.837,57.929,12.831-5.7-39.2,21.894-56.049,22.174-56.215l.368.621c-.277.164-27.6,16.867-21.783,55.794l.045.3-.288.1A66.7,66.7,0,0,1,2029.947,882.326Z" transform="translate(-1989.856 -724.322)" fill="#fff"/>
                <path id="Path_10" data-name="Path 10" d="M2097.185,1002.379c-9.089,0-20.6-2.113-34.224-8.838l.32-.648c34.181,16.87,54.81,4.492,57.094,2.99-6.468-21.321,9.354-52.9,9.516-53.215l.644.327c-.16.317-15.98,31.887-9.392,52.929l.077.247-.209.153C2120.879,996.421,2112.445,1002.379,2097.185,1002.379Z" transform="translate(-2038.472 -803.951)" fill="#fff"/>
              </g>
            </g>
          </g>
        </g>
        <g id="Group_11" data-name="Group 11" transform="translate(0 40.224)">
          <g id="Group_10" data-name="Group 10">
            <path id="Path_12" data-name="Path 12" d="M1890.632,931.857c4.445-15.93,8.739-41.1-2-65.187-18.741-42.028-62.153-33.478-97.741-80.19-28.7-37.675-15.6-63.11-49.056-89.71-5.6-4.452-35.094-28.811-60.085-18.784-14.083,5.65-20.488,19.693-21.691,22.33-18.175,39.845,16.895,109.13,68.552,144.689,29.679,20.43,40.454,15.977,93.78,41.837A313.984,313.984,0,0,1,1890.632,931.857Z" transform="translate(-1655.201 -675.587)" fill="url(#linear-gradient-2)"/>
            <g id="Group_9" data-name="Group 9" clip-path="url(#clip-path-2)">
              <g id="Group_8" data-name="Group 8" transform="translate(-10.55 -16.088)" opacity="0.5" style="mix-blend-mode: soft-light;isolation: isolate">
                <path id="Path_13" data-name="Path 13" d="M1956.847,919.95c-3.841-39.453-16.23-67.008-36.824-81.9-10.05-7.267-18.5-9.165-27.451-11.175-9.766-2.193-19.865-4.461-32.5-14.108-12.294-9.387-16.171-17.541-21.077-27.865a153.122,153.122,0,0,0-23.036-36.468,163.234,163.234,0,0,0-28.2-26.856c-8.5-6.638-15.221-11.882-22.39-23.744-11.682-19.328-16.316-42.973-13.773-70.275l.719.067c-2.528,27.146,2.072,50.641,13.672,69.834,7.1,11.748,13.771,16.956,22.216,23.548a163.876,163.876,0,0,1,28.307,26.963,153.794,153.794,0,0,1,23.134,36.62c4.865,10.236,8.707,18.32,20.863,27.6,12.509,9.551,22.53,11.8,32.22,13.978,9.023,2.026,17.546,3.941,27.716,11.294,20.769,15.018,33.258,42.746,37.12,82.414Z" transform="translate(-1708.308 -627.56)" fill="#fff"/>
                <path id="Path_14" data-name="Path 14" d="M1707.228,763.037l-.482-.037a106.215,106.215,0,0,1-63.279-27.124c-13.349-12.011-19.7-23.634-19.761-23.75l.636-.343c.062.115,6.365,11.646,19.63,23.575a105.5,105.5,0,0,0,62.354,26.883c-1.084-5.508-10.555-57.167,10.863-76.514l.484.536c-22.215,20.067-10.664,75.741-10.545,76.3Z" transform="translate(-1623.706 -666.242)" fill="#fff"/>
                <path id="Path_15" data-name="Path 15" d="M1731.056,908.036c-.548,0-1.1,0-1.656-.01a125.837,125.837,0,0,1-74.851-25.263l.436-.575a128.829,128.829,0,0,0,109.561,20.8c-4.6-29.018,6.541-68.065,6.655-68.458l.694.2c-.114.393-11.285,39.566-6.585,68.452l.05.307-.3.1C1764.921,903.633,1751.021,908.036,1731.056,908.036Z" transform="translate(-1644.217 -765.202)" fill="#fff"/>
                <path id="Path_16" data-name="Path 16" d="M1903.764,1088.319a187.518,187.518,0,0,1-24.284-1.6l.094-.716c52.2,6.81,85.7-10.277,89.362-12.259-18.34-28.577-5.377-70.626-5.243-71.048l.688.217c-.133.421-13.09,42.47,5.371,70.763l.208.319-.329.191C1969.342,1074.354,1944.72,1088.319,1903.764,1088.319Z" transform="translate(-1793.802 -877.035)" fill="#fff"/>
              </g>
            </g>
          </g>
        </g>
        <g id="Group_12" data-name="Group 12" transform="translate(45.329 159.482)">
          <path id="Path_18" data-name="Path 18" d="M1982.685,1154.9a176.162,176.162,0,0,0-41.16-27.651c-33.966-16.362-50.957-10.732-64.29-27.291-13.8-17.141-2.12-31.278-18.778-50.555-1.4-1.621-19.339-21.84-38.072-17.072-13.105,3.336-19.564,17.109-22.594,23.571-11.76,25.082-10.881,65.343,14.786,87.943,24.334,21.427,58.657,16.2,69.562,14.47,19.132-3.041,24.323-9.8,43.711-12.332C1949.428,1142.908,1969.628,1149.278,1982.685,1154.9Z" transform="translate(-1790.519 -1031.604)" fill="url(#linear-gradient-10)"/>
        </g>
      </g>
      <g id="Group_23" data-name="Group 23" transform="translate(2114.182 492.41)">
        <g id="Group_17" data-name="Group 17" transform="translate(0 9.791)">
          <g id="Group_16" data-name="Group 16">
            <path id="Path_19" data-name="Path 19" d="M3099.729,755.518c-12.074-10.459-28.333-27.728-36.468-52.846-9.34-28.842.571-41.672-4.036-75.724-6.575-48.609-42.142-65.359-32.043-87.472,4.924-10.784,18.1-18.684,29.686-17.767,33.067,2.618,69.8,78.322,49.847,128.413-9.025,22.655-24.438,29.846-27.076,53.745C3077.308,724.985,3089.644,743.608,3099.729,755.518Z" transform="translate(-3025.389 -521.638)" fill="url(#linear-gradient-3)"/>
            <g id="Group_15" data-name="Group 15" clip-path="url(#clip-path-3)">
              <g id="Group_14" data-name="Group 14" transform="translate(-1.942 -2.569)" opacity="0.5" style="mix-blend-mode: soft-light;isolation: isolate">
                <path id="Path_20" data-name="Path 20" d="M3081.944,728.118a115.834,115.834,0,0,1-4.038-19.431c-1.8-15.067.156-25.1,2.63-37.8a268.038,268.038,0,0,0,4.512-30.052c2.037-23.328,2.271-31.228.036-42.36a105.764,105.764,0,0,0-21.2-45.143,103.125,103.125,0,0,0-30.918-25.617l.345-.635a103.829,103.829,0,0,1,31.133,25.8,106.481,106.481,0,0,1,21.35,45.456c2.253,11.221,2.02,19.155-.024,42.565a268.642,268.642,0,0,1-4.523,30.128c-2.461,12.638-4.4,22.621-2.621,37.576a115.044,115.044,0,0,0,4.012,19.309Z" transform="translate(-3028.485 -522.688)" fill="#fff"/>
                <path id="Path_21" data-name="Path 21" d="M3072.222,575.05l-.315-.5c-15.78-25.3-51.761-15.656-52.123-15.555l-.193-.7c.365-.1,36.374-9.754,52.6,15.351,2.23-4.206,15.971-32.792-6.61-59.208l.548-.469c24.666,28.853,6.582,60.256,6.4,60.57Z" transform="translate(-3019.592 -513.968)" fill="#fff"/>
                <path id="Path_22" data-name="Path 22" d="M3124.443,783.035l-.085-.291c-4.424-15.191-13.207-23.067-19.8-27a36.445,36.445,0,0,0-13.34-4.94l.075-.719c.249.026,24.99,2.918,33.667,32.159,2.984-.429,27.352-4.623,36.24-27.572l.674.261c-9.588,24.757-36.859,28.039-37.133,28.069Z" transform="translate(-3067.228 -670.991)" fill="#fff"/>
                <path id="Path_23" data-name="Path 23" d="M3133.41,879.326a18.1,18.1,0,0,1-3.3-.249l-.253-.052-.034-.257c-2.167-16.8-23.373-33.764-23.587-33.933l.448-.566c.215.17,21.428,17.133,23.82,34.139,2.338.333,20.565,2.089,38.824-20.462l.561.454c-10.309,12.734-20.557,17.679-27.337,19.585A33.964,33.964,0,0,1,3133.41,879.326Z" transform="translate(-3077.213 -733.626)" fill="#fff"/>
              </g>
            </g>
          </g>
        </g>
        <g id="Group_21" data-name="Group 21" transform="translate(39.296 0)">
          <g id="Group_20" data-name="Group 20">
            <path id="Path_25" data-name="Path 25" d="M3162.3,737.268c-8.239-9.708-19.35-25.924-19.6-46.231-.434-35.428,32.678-43.434,42.518-87.565,7.936-35.593-9.418-49.16,5.406-78.538,2.481-4.917,15.26-31.453,35.966-32.492,11.668-.586,20.672,7.172,22.362,8.628,25.546,22.009,23.341,81.758-1.328,123.266-14.173,23.848-23.143,24.205-52.1,59.468A241.757,241.757,0,0,0,3162.3,737.268Z" transform="translate(-3142.7 -492.41)" fill="url(#linear-gradient-4)"/>
            <g id="Group_19" data-name="Group 19" clip-path="url(#clip-path-4)">
              <g id="Group_18" data-name="Group 18" transform="translate(15.948 -10.942)" opacity="0.5" style="mix-blend-mode: soft-light;isolation: isolate">
                <path id="Path_26" data-name="Path 26" d="M3198.023,730.587c-10.087-29.007-10.284-52.444-.585-69.659,4.75-8.433,10.1-12.523,15.765-16.852,6.069-4.639,12.343-9.434,18.005-20.127,5.5-10.388,5.584-17.271,5.688-25.984a118.463,118.463,0,0,1,4.384-33.083,126.253,126.253,0,0,1,11.116-27.991c3.779-7.323,6.763-13.107,7.941-23.595,1.927-17.141-2.421-35.036-12.925-53.189l.625-.362c10.583,18.29,14.962,36.334,13.019,53.632-1.194,10.62-4.206,16.456-8.018,23.845a125.618,125.618,0,0,0-11.06,27.848,117.789,117.789,0,0,0-4.358,32.9c-.106,8.811-.19,15.771-5.772,26.313-5.737,10.833-12.076,15.678-18.206,20.363-5.6,4.283-10.9,8.328-15.575,16.633-9.593,17.026-9.377,40.264.638,69.067Z" transform="translate(-3190.308 -459.745)" fill="#fff"/>
                <path id="Path_27" data-name="Path 27" d="M3307.827,576.58l-.107-.472c-.1-.429-9.944-43.037-31.9-49.9l.216-.689c21.083,6.59,31.122,45.235,32.275,49.96,37.989-21.495,40.914-61.176,40.939-61.575l.721.045c-.025.405-3,40.765-41.724,62.395Z" transform="translate(-3247.177 -495.762)" fill="#fff"/>
                <path id="Path_28" data-name="Path 28" d="M3279.669,723.281l-.083-.3c-6.015-21.7-26.435-45.478-26.641-45.716l.547-.473a177.316,177.316,0,0,1,11.093,14.7c5.364,7.9,12.4,19.657,15.612,30.99,4.075-.6,47.417-7.943,69.781-49.789l.636.341a96.976,96.976,0,0,1-44.242,41.816,95.486,95.486,0,0,1-26.4,8.392Z" transform="translate(-3231.964 -601.362)" fill="#fff"/>
                <path id="Path_29" data-name="Path 29" d="M3240.291,895.943c-2.155,0-3.343-.106-3.372-.109l-.378-.036.055-.376c3.791-25.7-18.791-50.9-19.019-51.147l.534-.486c.23.253,22.814,25.453,19.254,51.352,3.6.215,32.321,1.165,66.3-20.209l.384.611A134.068,134.068,0,0,1,3256.7,894.37,94.423,94.423,0,0,1,3240.291,895.943Z" transform="translate(-3208.443 -715.143)" fill="#fff"/>
              </g>
            </g>
          </g>
        </g>
        <g id="Group_22" data-name="Group 22" transform="translate(53.037 97.633)">
          <path id="Path_31" data-name="Path 31" d="M3183.719,922.167a135.633,135.633,0,0,1,19.876-32.6c18.482-22.384,32.177-23.921,36.166-39.8,4.129-16.433-8.593-22.556-3.155-41.4.458-1.585,6.488-21.5,21.125-24.2,10.24-1.889,19.193,5.662,23.394,9.206,16.3,13.751,28.658,42.189,17.991,66.262-10.114,22.823-35.8,30.227-43.984,32.529-14.359,4.036-20.167.979-34.54,5.457C3203.113,903.068,3191.039,914.03,3183.719,922.167Z" transform="translate(-3183.719 -783.87)" fill="url(#linear-gradient-13)"/>
        </g>
      </g>
      <path id="Path_32" data-name="Path 32" d="M1792.252,1314.156s-89.547,11.284-88.833,20.944c.363,4.911,32.57,5.167,33.222,12.277.719,7.853-38.182,11.616-39,22.389-.971,12.811,51.965,34.971,109.054,36.11,43.907.876,48.206-11.521,88.832-6.5,40.36,4.989,44.166,18.219,77.277,17.333,38.686-1.035,44.374-19.386,75.111-15.166s31.945,23.53,64.276,31.777c12.262,3.128,24.8,3.594,91-14.444,5.6-1.526,4.767-1.342,17.256-4.823,81.67-22.765,100.164-23.528,108.153-39.422,7.163-14.253-4.188-20.645,3.61-36.833,13.012-27.011,53-26.616,53.2-36.428.175-8.516-29.742-18.74-65.946-23.327C2209.189,1264.074,1959.759,1292.156,1792.252,1314.156Z" transform="translate(-28.216 -519.977)" fill="#ebeff2"/>
      <path id="Path_33" data-name="Path 33" d="M1879,1367.993c-35.768,1.686-46.207,3.365-46.222,4.815-.023,2.219,24.405,3.744,24.555,8.185.116,3.426-14.3,5.95-13.963,9.148.3,2.859,11.986,2.286,13,6.259,1.131,4.432-12.588,8.367-12.518,13.481.109,8.167,35.346,17.095,73.665,17.333,31.8.2,71.611-5.553,72.221-14.926.587-9-35.311-16.256-34.184-21.666.819-3.935,20.279-2.364,49.592-1.926,0,0,36.614.548,70.3-1.444,34.274-2.027,32.75-5.2,75.592-9.148,37.686-3.475,56.529-5.213,76.554-3.852,28.9,1.965,45.31,7.222,70.777-.481,14.5-4.385,12.061-6.961,26.963-12.037,32.743-11.155,46.818.493,86.666-5.778,21.471-3.379,46.7-11.373,46.222-16.852-.538-6.2-33.875-8-46.222-8.667C2376.064,1328.5,2268.383,1330.2,1879,1367.993Z" transform="translate(-118.094 -556.963)" fill="#d8dee8"/>
      <g id="Group_28" data-name="Group 28" transform="translate(2126.018 589.196)">
        <path id="Path_34" data-name="Path 34" d="M3060.722,1086.371l79.208,12.907a20.943,20.943,0,0,0,5.015.208l6.471-.51-1.073-140.794L3060.722,955Z" transform="translate(-3060.722 -896.829)" fill="url(#linear-gradient-14)"/>
        <path id="Path_35" data-name="Path 35" d="M3404.288,965.924v122.622a8.2,8.2,0,0,1-7.729,8.231l-85.518,5.087a6.168,6.168,0,0,1-6.412-6.232V967.881a6.57,6.57,0,0,1,6.271-6.624l86.135-2.4A7.034,7.034,0,0,1,3404.288,965.924Z" transform="translate(-3222.926 -899.391)" fill="url(#linear-gradient-15)"/>
        <path id="Path_36" data-name="Path 36" d="M3060.722,951.442l81.7,3.869,92.405-2.575-94.737-3.086Z" transform="translate(-3060.722 -893.27)" fill="url(#linear-gradient-16)"/>
        <path id="Path_37" data-name="Path 37" d="M3432.368,958.867l-67.458,1.879a7.254,7.254,0,0,0-6.967,7.264,48.852,48.852,0,0,0,3.979,19.83c9.6,21.752,31.068,22.555,35.535,42.52,3.721,16.635-9.456,23.792-10.85,45.049a56.825,56.825,0,0,0,1.78,18.032,7.314,7.314,0,0,0,7.463,5.495l37.137-2.209a7.168,7.168,0,0,0,6.755-7.192V966.053A7.152,7.152,0,0,0,3432.368,958.867Z" transform="translate(-3258.381 -899.399)" opacity="0.3" fill="url(#linear-gradient-17)" style="mix-blend-mode: multiply;isolation: isolate"/>
        <path id="Path_38" data-name="Path 38" d="M3394.114,1102.169l31.707-1.886V961.418l-31.707.883Z" transform="translate(-3282.436 -901.097)" fill="url(#linear-gradient-18)"/>
        <path id="Path_39" data-name="Path 39" d="M3398.378,1102.084l30.279-1.8V961.418l-30.279.844Z" transform="translate(-3285.271 -901.097)" fill="url(#linear-gradient-19)"/>
        <path id="Path_40" data-name="Path 40" d="M3185.976,951.245l88.389,5.026h-31.778l-77.277-4.559Z" transform="translate(-3130.275 -894.331)" fill="url(#linear-gradient-20)"/>
        <g id="Group_25" data-name="Group 25" transform="translate(98.303 13.521)">
          <path id="Path_41" data-name="Path 41" d="M3354.59,860.856c2.059-12.608,3.562-21.823,11.8-30.333,3.472-3.588,7.263-7.507,13.481-8.546,7.15-1.2,16.278,1.623,18.778,7.463,2.375,5.545-3.22,9.158-.843,15.527,2.388,6.4,9.349,6.265,10.111,11.435.646,4.379-3.629,9.347-7.944,11.676-7.453,4.021-11.684-1.636-26.241-.722-10.031.629-15.82,3.805-18.537.6C3353.9,866.432,3354.025,864.315,3354.59,860.856Z" transform="translate(-3354.183 -821.706)" fill="url(#linear-gradient-21)"/>
          <g id="Group_24" data-name="Group 24" transform="translate(0.19 24.799)" opacity="0.3" style="mix-blend-mode: multiply;isolation: isolate">
            <path id="Path_42" data-name="Path 42" d="M3394.81,905.155c-8.987-3.437-13.593-10.918-17.574-9.148-3.538,1.573-1.379,8.138-5.537,13.482-3.8,4.88-10.761,6.04-16.948,6.045a3.98,3.98,0,0,0,.819,1.658c2.716,3.2,8.506.028,18.536-.6,14.557-.914,18.788,4.743,26.241.722,3.959-2.136,7.873-6.494,7.995-10.581A28.935,28.935,0,0,1,3394.81,905.155Z" transform="translate(-3354.751 -895.739)" fill="url(#linear-gradient-22)"/>
          </g>
        </g>
        <g id="Group_27" data-name="Group 27" transform="translate(38.43)">
          <path id="Path_43" data-name="Path 43" d="M3181.44,802.838c6.046-4.771,12.418.55,19.861-4.694,7.538-5.312,5.348-13.833,11.194-16.25,6.792-2.807,16.852,5.758,21.667,11.194,12.228,13.807,17.969,38.32,8.3,46.944-3.627,3.237-13.9,1.9-34.295-.9-23.312-3.2-26.668-5.492-28.9-8.492C3173.26,822.558,3174.6,808.239,3181.44,802.838Z" transform="translate(-3175.447 -781.343)" fill="url(#linear-gradient-23)"/>
          <g id="Group_26" data-name="Group 26" transform="translate(0 19.93)" opacity="0.3" style="mix-blend-mode: multiply;isolation: isolate">
            <path id="Path_44" data-name="Path 44" d="M3219.718,852.756c-3.359-1.06-4.89,2.785-11.8,4.333-1.268.284-13.446,2.828-19.982-4.815a16.581,16.581,0,0,1-3.668-11.435,9.6,9.6,0,0,0-2.832,1.565c-6.844,5.4-8.18,19.721-2.167,27.805,2.231,3,5.586,5.292,28.9,8.492,20.4,2.8,30.667,4.133,34.295.9a11.687,11.687,0,0,0,1.336-1.433c-4.893-.161-10.027-1.346-13.733-4.947C3222.917,866.271,3225.429,854.557,3219.718,852.756Z" transform="translate(-3175.447 -840.839)" fill="url(#linear-gradient-24)"/>
          </g>
        </g>
      </g>
      <g id="Group_31" data-name="Group 31" transform="translate(1788.156 547.801)">
        <ellipse id="Ellipse_2" data-name="Ellipse 2" cx="7.583" cy="6.139" rx="7.583" ry="6.139" transform="translate(240.211 5.88)" fill="url(#linear-gradient-25)"/>
        <g id="Group_30" data-name="Group 30" transform="translate(0 0)">
          <path id="Path_45" data-name="Path 45" d="M2438.707,903.874c0,5.909-4.194,10.992-9.341,11.3L2066.735,937.32c-6.87.407-14.625-5.4-14.625-12.273V671.269c0-6.868,7.941-12.643,14.811-12.358l362.445,15.515c5.147.213,9.341,5.222,9.341,11.13Z" transform="translate(-2052.111 -658.521)" fill="#d8dee8"/>
          <path id="Path_46" data-name="Path 46" d="M2455.065,903.535c0,5.937-4.215,11.044-9.386,11.351l-366.5,21.726a11.747,11.747,0,0,1-12.577-11.8V669.8a12,12,0,0,1,12.577-12.026l366.5,15.2c5.171.214,9.386,5.247,9.386,11.184Z" transform="translate(-2061.745 -657.768)" fill="#fff"/>
          <g id="Group_29" data-name="Group 29" transform="translate(35.363 75.873)">
            <path id="Path_47" data-name="Path 47" d="M2181.82,928.488a23.678,23.678,0,0,1-9.051,2.151c-4.96.057-8.569-1.572-11.107-4.776-2.537-3.1-3.962-7.821-3.984-13.156-.1-12.068,6.4-19.039,15.31-19.141a14.7,14.7,0,0,1,7.563,1.691l-1.215,6.587a11.859,11.859,0,0,0-6.35-1.49c-5.123.059-8.95,3.982-8.859,11.848.085,7.488,3.645,11.866,8.687,11.808a6.362,6.362,0,0,0,3.019-.573l-.088-7.6-4.194.048-.074-6.411,10.123-.116Z" transform="translate(-2157.678 -890.452)" fill="url(#linear-gradient-26)"/>
            <path id="Path_48" data-name="Path 48" d="M2248.748,893.747c.026,2.263-1.243,4.109-3.259,4.132-1.937.022-3.248-1.794-3.233-4.058-.067-2.37,1.2-4.162,3.178-4.185S2248.68,891.377,2248.748,893.747Zm-5.945,33.744-.3-26.344,6.13-.07.3,26.344Z" transform="translate(-2213.922 -887.839)" fill="url(#linear-gradient-27)"/>
            <path id="Path_49" data-name="Path 49" d="M2273.207,924.945l-.233-20.311-2.581.03-.069-6.034,2.581-.029-.012-1.024c-.035-3.179.65-6.688,2.4-8.864a6.905,6.905,0,0,1,5.414-2.7,9.009,9.009,0,0,1,3.273.5l-.17,6.306a5.109,5.109,0,0,0-1.98-.354c-2.017.023-2.84,2.134-2.811,4.72l.016,1.347,3.953-.045.069,6.034-3.912.045.233,20.31Z" transform="translate(-2232.59 -885.427)" fill="url(#linear-gradient-28)"/>
            <path id="Path_50" data-name="Path 50" d="M2322.093,900.377l.086,7.542,4.4-.051.069,6.034-4.4.05.11,9.536c.036,3.179.617,4.627,2.472,4.606a7.594,7.594,0,0,0,1.813-.236l.112,6.195a9.258,9.258,0,0,1-3.985.746,5.6,5.6,0,0,1-4.624-2.21c-1.147-1.55-1.74-4.075-1.783-7.792l-.124-10.775-2.621.03-.069-6.034,2.622-.03-.066-5.711Z" transform="translate(-2261.335 -894.982)" fill="url(#linear-gradient-29)"/>
            <path id="Path_51" data-name="Path 51" d="M2400.513,946.46a11.651,11.651,0,0,1-5.472,1.248c-6.372.073-10.506-5.052-10.6-13.349-.089-7.7,3.791-14.052,11.131-14.137a11.039,11.039,0,0,1,4.691.97l-.9,6.1a6.586,6.586,0,0,0-3.437-.768c-3.227.037-5.288,3.132-5.2,7.441.056,4.849,2.5,7.353,5.489,7.319a7.389,7.389,0,0,0,3.5-.849Z" transform="translate(-2308.479 -908.179)" fill="url(#linear-gradient-30)"/>
            <path id="Path_52" data-name="Path 52" d="M2451.519,946.573l-.393-2.636H2451a6.459,6.459,0,0,1-5.61,3.3c-3.992.046-6.417-3.807-6.465-8.009-.078-6.842,4.482-10.181,11.46-10.207l-.005-.377c-.015-1.4-.6-3.388-3.628-3.353a9.111,9.111,0,0,0-5.422,2.056l-1.19-5.267a13.115,13.115,0,0,1,7.637-2.4c6.574-.075,8.73,5.073,8.8,11.268l.105,9.158a54.265,54.265,0,0,0,.356,6.408Zm-.868-12.437c-3.227-.017-5.716,1.036-5.68,4.214.024,2.1,1.084,3.113,2.457,3.1a3.592,3.592,0,0,0,3.151-3.054,7.717,7.717,0,0,0,.1-1.4Z" transform="translate(-2344.716 -907.815)" fill="url(#linear-gradient-31)"/>
            <path id="Path_53" data-name="Path 53" d="M2505.492,928.229c-.044-3.879-.155-6.41-.261-8.672l5.284-.061.257,4.846.161,0c.964-3.837,3.366-5.48,5.261-5.5a4.734,4.734,0,0,1,1.291.093l.088,7.7a6.648,6.648,0,0,0-1.655-.2c-2.258.026-3.773,1.66-4.147,4.2a12.758,12.758,0,0,0-.1,1.833l.154,13.361-6.13.07Z" transform="translate(-2388.809 -907.257)" fill="url(#linear-gradient-32)"/>
            <path id="Path_54" data-name="Path 54" d="M2567.541,884.271l.349,30.385c.034,2.963.151,6.087.251,7.864l-5.445.062-.326-3.876h-.081a6.7,6.7,0,0,1-6.12,4.543c-4.678.054-8.49-5.237-8.584-13.425-.142-8.889,3.953-14.055,8.672-14.109a5.514,5.514,0,0,1,5.237,2.9h.081l-.164-14.277Zm-5.865,23.129c0-.431-.053-1.023-.1-1.454-.388-2.2-1.74-4.021-3.635-4-2.783.032-4.2,3.389-4.148,7.537.051,4.471,1.736,7.254,4.278,7.224,1.774-.02,3.167-1.652,3.5-3.973a9.19,9.19,0,0,0,.14-1.887Z" transform="translate(-2416.973 -884.271)" fill="url(#linear-gradient-33)"/>
          </g>
          <path id="Path_55" data-name="Path 55" d="M2243.095,1183.264c-14.027-1.012-20.055,9.423-44.055,13-6.2.923-36.941,5.5-44.056-6.5-10.441-17.617,41.433-51.653,31.056-78-5.791-14.7-29.326-22.847-46.945-20.222-22.378,3.334-27.482,22.892-49.11,26a44.534,44.534,0,0,1-23.388-3.384v98.8a11.747,11.747,0,0,0,12.577,11.8l200.376-11.878C2265.445,1190.055,2252.767,1183.961,2243.095,1183.264Z" transform="translate(-2061.745 -945.913)" fill="url(#linear-gradient-34)"/>
          <path id="Path_56" data-name="Path 56" d="M2772.9,685.672l-212.552-8.814a46.71,46.71,0,0,0-1.156,19.52c5.4,34.113,49.4,54.2,81.01,50.57,32.695-3.753,41.6-31.667,65.748-27.142,20.574,3.856,39.772,28.932,37.674,50.135-2.915,29.458-45.012,32-50.83,63.664-4.319,23.509,13.153,53.332,38.79,62.446,16.015,5.694,34.651,3.1,50.7-6.405V696.856C2782.29,690.919,2778.075,685.887,2772.9,685.672Z" transform="translate(-2388.97 -670.463)" fill="url(#linear-gradient-35)"/>
          <path id="Path_57" data-name="Path 57" d="M2209.326,1194.428c-31.705,5.033-52.2,6.063-75.575-.862-32.633-9.67-54.836-30.025-67.154-43.6v102.168a11.747,11.747,0,0,0,12.577,11.8l366.5-21.726c5.172-.307,9.386-5.414,9.386-11.351v-35.923c-49.789-32.4-89.916-35.553-118.184-31.872C2302.091,1167.591,2282.435,1182.824,2209.326,1194.428Z" transform="translate(-2061.745 -985.089)" opacity="0.15" fill="url(#linear-gradient-36)" style="mix-blend-mode: multiply;isolation: isolate"/>
          <path id="Path_58" data-name="Path 58" d="M2782.142,941.868l17.333-1.028V686.634l-17.333-.719Z" transform="translate(-2537.598 -676.487)" opacity="0.3" fill="url(#linear-gradient-37)" style="mix-blend-mode: multiply;isolation: isolate"/>
          <path id="Path_59" data-name="Path 59" d="M2794.377,934.438l88.832-5.266V683.306a4.266,4.266,0,0,0-4.089-4.263l-81.252-3.369-7.1-.352,1.431.859a4.489,4.489,0,0,1,2.18,3.849Z" transform="translate(-2543.334 -669.442)" fill="url(#linear-gradient-38)"/>
          <path id="Path_60" data-name="Path 60" d="M2796.534,934.438l88.832-5.266V683.306a4.266,4.266,0,0,0-4.089-4.263l-81.253-3.369-7.1-.352,1.432.859a4.49,4.49,0,0,1,2.18,3.849Z" transform="translate(-2544.767 -669.442)" fill="url(#linear-gradient-39)"/>
        </g>
      </g>
      <g id="Group_35" data-name="Group 35" transform="translate(1994.081 605.061)">
        <path id="Path_61" data-name="Path 61" d="M2845.944,891.038c-.223-.392-.466-.763-.715-1.125-.076-.111-.155-.219-.233-.327q-.289-.394-.6-.764c-.081-.1-.159-.2-.242-.3-.246-.282-.5-.552-.763-.814-.161-.162-.328-.317-.494-.472-.113-.1-.227-.206-.343-.307-4.465-3.924-10.78-5.485-16.115-6.729-21.913-5.11-42.391,1.837-55.636,8.327-1.983-1.186-4.578-1.887-8.29-2.885-3.814-1.025-5.721-1.538-7.573-1.109a8.2,8.2,0,0,0-2.562,1.107,149.721,149.721,0,0,0-36.437-35.774c-10.606-7.271-19.874-13.471-27.841-12.415l-.065.01c-.309.042-.615.1-.92.162-.083.018-.168.038-.252.057q-.376.088-.748.2c-.09.027-.179.052-.268.08-.322.1-.644.219-.961.351-7.291,3.035-9.774,15.065-14.444,39-7.2,36.9-1.9,44.075,1.445,46.944,2.119,1.819,4.061,2.416,7.943,3.611,3.608,1.11,18.291,5.166,49.833-5.778,2.749-.954,5.917-2.124,9.417-3.547a69.725,69.725,0,0,0-8.244,10.408q-.623.965-1.208,1.937c-.127.21-.243.421-.366.632-.259.44-.52.88-.767,1.322-.13.233-.251.467-.378.7-.229.421-.461.842-.68,1.263-.125.24-.24.48-.361.72-.21.416-.423.832-.625,1.248-.116.24-.224.48-.336.721-.2.416-.394.832-.58,1.248-.1.232-.2.463-.3.7-.185.424-.372.848-.548,1.271-.092.222-.177.443-.267.665-.174.43-.35.86-.514,1.288-.084.218-.161.434-.243.652-.161.43-.324.861-.476,1.289-.075.21-.143.417-.215.627-.151.432-.3.864-.442,1.293-.067.2-.128.405-.192.609-.138.43-.275.861-.4,1.287-.06.2-.115.4-.172.594-.125.425-.25.85-.366,1.27-.055.2-.1.392-.156.589-.112.416-.224.831-.327,1.241-.049.2-.094.389-.142.583-.1.4-.2.809-.289,1.207-.044.195-.084.385-.126.578-.086.391-.174.782-.252,1.167-.041.2-.077.386-.115.58-.074.374-.148.748-.215,1.115-.037.2-.068.388-.1.583-.064.355-.126.71-.182,1.057-.033.2-.061.394-.091.591-.051.331-.1.663-.147.986-.029.208-.053.409-.081.613-.04.3-.08.605-.115.9-.026.215-.047.422-.07.632-.03.273-.061.547-.086.812-.021.222-.04.436-.059.653-.021.24-.042.481-.06.714s-.031.454-.046.679c-.012.205-.027.413-.037.612-.013.239-.022.468-.031.7-.006.17-.015.342-.02.507-.007.245-.011.479-.015.713,0,.136,0,.275,0,.407,0,.249,0,.485,0,.72,0,.1,0,.208,0,.307.007.25.015.486.026.718,0,.072.006.146.01.217.013.245.029.476.048.7,0,.046.007.094.011.138.021.233.045.45.071.656,0,.027.007.056.01.082.028.214.06.411.1.594,0,.012,0,.025.006.037.036.189.076.359.117.512l0,.011a1.443,1.443,0,0,0,.456.859c.021.012.042.037.063.043.4.1.695-.88,4.784-7.132,5.122-7.828,6.378-8.917,7.493-8.757,1.394.2,1.812,2.24,3.341,5.778,1.589,3.676,5.937,12.577,8.215,12.277,2.605-.343,2.261-12.692,3.7-25.458a143.531,143.531,0,0,1,4.209-21.864,96.425,96.425,0,0,0-.6,9.677q-.015,1.383.01,2.751c.005.3.019.6.027.9.016.608.031,1.217.059,1.82.015.347.039.688.058,1.033.031.553.059,1.107.1,1.656.025.355.059.7.087,1.058.043.533.086,1.067.137,1.595.034.348.075.691.111,1.036.057.528.112,1.057.176,1.579.041.33.087.656.13.984.07.532.14,1.063.217,1.588.045.308.1.612.143.919.083.538.167,1.075.258,1.605.049.285.1.566.153.849.1.546.2,1.09.3,1.627.05.256.1.507.154.761.113.559.227,1.115.347,1.663.048.223.1.442.149.663.129.573.259,1.142.4,1.7.045.187.091.371.138.557.146.589.293,1.172.445,1.747.04.152.081.3.122.453q.244.9.5,1.782c.033.117.068.233.1.349q.268.922.545,1.815l.077.246q.294.937.6,1.839l.05.151q.318.943.641,1.847c.009.023.017.046.025.069,3.67,10.209,7.9,16.557,9.552,16.166,2.631-.623-.365-18.583,3.61-19.5,1.362-.314,2.446,1.625,5.236,4.153,6.416,5.813,15.631,9.107,17.152,7.4,1.907-2.135-8.35-12.019-16.791-25.638a112.777,112.777,0,0,1-13.271-31.223c-.072-.277-.14-.55-.209-.824q-.186-.742-.359-1.469c-.064-.269-.128-.538-.19-.8q-.21-.912-.4-1.8c-.027-.125-.055-.253-.083-.377-.132-.624-.254-1.233-.372-1.835a13.31,13.31,0,0,0,2.8-.325,124.952,124.952,0,0,0,10.818,16.627c7.108,9.225,27.3,35.431,42.61,31.055,5.345-1.528,9.9-12.113,18.778-33.222C2849.122,902.068,2848.578,895.66,2845.944,891.038Z" transform="translate(-2666.854 -834.447)" opacity="0.3" fill="url(#linear-gradient-40)" style="mix-blend-mode: multiply;isolation: isolate"/>
        <g id="Group_34" data-name="Group 34" transform="translate(6.5)">
          <path id="Path_62" data-name="Path 62" d="M2776.515,883.852c-14.547-22.188-30.414-35.24-41.166-42.611-12.064-8.271-22.4-15.16-31.055-11.555-7.29,3.035-9.774,15.065-14.444,39-7.2,36.9-1.9,44.075,1.444,46.944,2.121,1.819,4.061,2.416,7.945,3.611,3.607,1.11,18.291,5.167,49.833-5.778a195.215,195.215,0,0,0,25.278-10.833Q2775.432,893.241,2776.515,883.852Z" transform="translate(-2686.258 -828.705)" fill="url(#linear-gradient-41)"/>
          <path id="Path_63" data-name="Path 63" d="M2966.492,966.17q-1.083,9.389-2.166,18.777a125.593,125.593,0,0,0,14.444,23.833c7.108,9.225,27.3,35.431,42.61,31.055,5.345-1.528,9.9-12.114,18.778-33.222,13.288-31.581,12.745-37.988,10.111-42.61-4.049-7.1-12.6-9.224-19.5-10.834C3003.261,946.754,2978,959.342,2966.492,966.17Z" transform="translate(-2871.179 -910.3)" fill="url(#linear-gradient-42)"/>
          <path id="Path_64" data-name="Path 64" d="M2871.356,1045.078a71.236,71.236,0,0,0-18.326,19.138c-13.383,20.693-13.17,44.646-11.285,45.139.4.1.694-.88,4.785-7.132,5.122-7.828,6.378-8.917,7.493-8.757,1.393.2,1.812,2.24,3.34,5.778,1.589,3.676,5.938,12.578,8.215,12.278,2.606-.343,2.261-12.692,3.7-25.458a143.644,143.644,0,0,1,8.576-35.208Z" transform="translate(-2789.043 -972.598)" fill="url(#linear-gradient-43)"/>
          <path id="Path_65" data-name="Path 65" d="M2940.8,1049.39a98.163,98.163,0,0,0-4.243,27.354c-.32,29.012,12.6,53.57,15.8,52.812,2.632-.623-.364-18.583,3.611-19.5,1.362-.314,2.446,1.625,5.236,4.153,6.416,5.813,15.632,9.107,17.153,7.4,1.907-2.135-8.35-12.019-16.791-25.638A115.361,115.361,0,0,1,2945.853,1053Z" transform="translate(-2852.707 -975.466)" fill="url(#linear-gradient-44)"/>
          <g id="Group_32" data-name="Group 32" transform="translate(83.842 73.924)" opacity="0.3" style="mix-blend-mode: multiply;isolation: isolate">
            <path id="Path_66" data-name="Path 66" d="M2944.409,1106.445c1.515-5.129,5.078-10.724,2.888-17.333-1.533-4.629-4.5-5.552-5.055-9.389-.438-3.006.693-7.17,6.642-12.765a122.845,122.845,0,0,1-3.03-13.957l-5.056-3.611a98.163,98.163,0,0,0-4.243,27.354,107.108,107.108,0,0,0,6.928,38.482A25.054,25.054,0,0,1,2944.409,1106.445Z" transform="translate(-2936.549 -1049.39)" fill="url(#linear-gradient-45)"/>
          </g>
          <g id="Group_33" data-name="Group 33" transform="translate(0 0.022)" opacity="0.3" style="mix-blend-mode: multiply;isolation: isolate">
            <path id="Path_67" data-name="Path 67" d="M2754.849,888.951c-6.078-5.435-6.312-10.171-11.555-11.555-6.212-1.641-8.975,4.191-20.944,6.5-5.349,1.032-11.531,2.224-16.611-.722-9.659-5.6-8.842-22.4-8.667-26,.614-12.626,6.627-22.39,11.521-28.4a12.768,12.768,0,0,0-4.3.959c-7.29,3.035-9.774,15.064-14.444,39-7.2,36.9-1.9,44.075,1.444,46.944,2.121,1.819,4.061,2.416,7.945,3.611,3.607,1.11,18.291,5.167,49.833-5.778a195.229,195.229,0,0,0,25.278-10.833q.305-2.653.612-5.305C2764.9,896.07,2758.751,892.441,2754.849,888.951Z" transform="translate(-2686.258 -828.77)" fill="url(#linear-gradient-46)"/>
          </g>
          <path id="Path_68" data-name="Path 68" d="M2843.192,1099.244c3.2-7.721,9.364-8.891,12.277-18.055,2.1-6.593-.175-8.883,1.445-13.722,1.566-4.68,6.283-10.271,20.109-14.365.284-.781.564-1.538.835-2.246l-6.5-5.778a71.247,71.247,0,0,0-18.327,19.138c-13.227,20.452-13.172,44.074-11.348,45.1A22.062,22.062,0,0,1,2843.192,1099.244Z" transform="translate(-2789.045 -972.598)" opacity="0.3" fill="url(#linear-gradient-47)" style="mix-blend-mode: multiply;isolation: isolate"/>
          <path id="Path_69" data-name="Path 69" d="M3050.269,977.592a16.8,16.8,0,0,0-5.57-5.758,15.3,15.3,0,0,1,.514,8.646c-.335,1.409-1.559,6.553-5.778,8.667-5.677,2.844-10.133-3.126-18.778-2.167-3.223.358-6.767,2.651-13.722,7.222-14.13,9.287-15.861,13.435-20.943,13-7.481-.64-12.082-10.34-13-12.278a27.864,27.864,0,0,1-1.817-17.81c-1.741.934-3.313,1.831-4.683,2.644q-1.083,9.389-2.166,18.777a125.593,125.593,0,0,0,14.444,23.833c7.108,9.224,27.3,35.431,42.61,31.055,5.345-1.528,9.9-12.114,18.778-33.222C3053.446,988.622,3052.9,982.214,3050.269,977.592Z" transform="translate(-2871.179 -923.889)" opacity="0.3" fill="url(#linear-gradient-48)" style="mix-blend-mode: multiply;isolation: isolate"/>
          <path id="Path_70" data-name="Path 70" d="M2944.883,990.457c-.65,2.564-2.527,9.983-9.019,12.8-3.911,1.7-7.642.922-10.462.336-3.251-.677-8.595-1.788-11.2-6.114-2.595-4.3-.97-9.271.722-14.444,1.338-4.09,4.026-12.312,10.112-13.722,1.851-.43,3.759.083,7.572,1.109,5.254,1.412,8.275,2.224,10.483,4.669C2947.527,980.011,2945.5,988.014,2944.883,990.457Z" transform="translate(-2836.94 -922.113)" fill="url(#linear-gradient-49)"/>
        </g>
      </g>
      <g id="Group_37" data-name="Group 37" transform="translate(1733.583 710.105)">
        <path id="Path_71" data-name="Path 71" d="M1927.89,1401.755l42.811,6.976a13.167,13.167,0,0,0,3.146.13l4.059-.32-.673-88.31-49.085-1.742a6.884,6.884,0,0,0-7.128,6.88v68.3A8.188,8.188,0,0,0,1927.89,1401.755Z" transform="translate(-1910.358 -1259.464)" fill="url(#linear-gradient-50)"/>
        <path id="Path_72" data-name="Path 72" d="M2136.514,1314.386v79.679a4.876,4.876,0,0,1-4.248,4.835l-54.126,7.034a3.835,3.835,0,0,1-4.136-3.822v-80.13a4.071,4.071,0,0,1,4.046-4.071Z" transform="translate(-2012.097 -1256.738)" fill="url(#linear-gradient-51)"/>
        <path id="Path_73" data-name="Path 73" d="M1915.425,1323.173l55.129,3.611v-9.148l-55.129-3.25Z" transform="translate(-1906.639 -1256.738)" fill="#d8dee8"/>
        <path id="Path_74" data-name="Path 74" d="M2108.009,1317.468a22.46,22.46,0,0,1,8.613,5.83c7.087,7.828,5.875,18.2,5.6,20.583-1.511,12.943-10.481,14.413-9.931,23.291.625,10.06,12.375,11.953,16.432,23.833a24.914,24.914,0,0,1,1.026,11.161l25.134-3.267a4.876,4.876,0,0,0,4.248-4.835v-79.679Z" transform="translate(-2034.711 -1256.738)" opacity="0.3" fill="url(#linear-gradient-52)" style="mix-blend-mode: multiply;isolation: isolate"/>
        <path id="Path_75" data-name="Path 75" d="M2080,1317.636v9.148l62.111-4.574v-7.824Z" transform="translate(-2016.085 -1256.738)" fill="#f4f7fa"/>
        <path id="Path_76" data-name="Path 76" d="M1915.425,1309.019l55.129-2.7,62.11,2.7-62.11,3.25Z" transform="translate(-1906.639 -1251.37)" fill="#d8dee8"/>
        <path id="Path_77" data-name="Path 77" d="M1915.425,1309.019l55.129-2.7,62.11,2.7-62.11,3.25Z" transform="translate(-1906.639 -1251.37)" fill="#d8dee8" opacity="0.3" style="mix-blend-mode: multiply;isolation: isolate"/>
        <path id="Path_78" data-name="Path 78" d="M1890.879,1246.428c1.416-2.157,6.253-8.975,12.759-8.907,3.928.041,7.326,3,13.962,8.907,5.629,5.013,6.617,6.875,9.028,8.907,4.354,3.67,12.252,6.971,27.805,4.333a61.8,61.8,0,0,1-13,2.769c-7.007.718-17.414,1.783-27.205-3.278-7.16-3.7-10.41-8.828-14.924-7.555a40.175,40.175,0,0,0-7.607,3.486c-1.064.618-1.921,1.175-2.5,1.569.111-.308.308-.827.6-1.444,2.3-4.844,6.053-6.4,5.658-7.7C1895.3,1246.992,1894.442,1246.4,1890.879,1246.428Z" transform="translate(-1889.194 -1205.621)" fill="url(#linear-gradient-53)"/>
        <path id="Path_79" data-name="Path 79" d="M2005.866,1199.16c-3.781.367-13.794.814-22.629-5.537-11.9-8.555-16.05-25.408-12.278-28.407,3.185-2.533,11.47,5.25,14.686,2.408,3.109-2.749-3.737-10.83-.482-17.574,3.163-6.553,15.026-10.1,21.666-6.018,6.551,4.031,6.077,14.3,5.537,26A87.355,87.355,0,0,1,2005.866,1199.16Z" transform="translate(-1942.672 -1142.29)" fill="url(#linear-gradient-54)"/>
        <path id="Path_80" data-name="Path 80" d="M2070.148,1224.875c-4.378-7.062-4.326-11.685-3.31-14.685,2.868-8.463,15.009-8.728,18-18.778,1.323-4.451-.3-6.953,1.926-8.907,3.5-3.072,12.667-1.418,15.648,3.611,4.489,7.572-6.217,20.815-2.889,23.352,1.6,1.221,4.248-1.723,7.7-.481,3.815,1.37,6.417,7.048,5.538,10.111C2111.51,1223.445,2102.011,1226.813,2070.148,1224.875Z" transform="translate(-2006.955 -1168.004)" fill="url(#linear-gradient-55)"/>
        <g id="Group_36" data-name="Group 36" transform="translate(72.539 57.648)" opacity="0.3" style="mix-blend-mode: multiply;isolation: isolate">
          <path id="Path_81" data-name="Path 81" d="M2159.23,1314.386l-53.488,2.8a22.679,22.679,0,0,1,9.372,6.113,20.976,20.976,0,0,1,1.625,2.041l42.49-3.129Z" transform="translate(-2105.742 -1314.386)" fill="#d8dee8"/>
        </g>
        <path id="Path_82" data-name="Path 82" d="M2095.4,1359.345c-2.774-1.379,10.942-20.772,3.984-34.12-5.16-9.9-20.095-13.406-21.8-13.787-5.947-1.325-10.982-.839-10.99-1.262-.009-.548,8.464-1.508,17.73-1.145,10.462.41,16.63.735,22.148,5.055,4.393,3.44,6.238,7.738,7.463,10.593,6.217,14.488.881,30.394-.963,30.333-1.514-.05-1.568-10.9-4.092-11.074-1.776-.124-2.546,5.186-8.186,11.315C2098.824,1357.289,2096.452,1359.867,2095.4,1359.345Z" transform="translate(-2007.171 -1253.123)" fill="url(#linear-gradient-56)"/>
        <path id="Path_83" data-name="Path 83" d="M2118.394,1210.612c-3.456-1.242-6.1,1.7-7.7.481-3.327-2.536,7.378-15.779,2.889-23.352a10.786,10.786,0,0,0-5.856-4.34c2.124,4.318,2.041,7.305,1.283,9.4-1.872,5.165-7.9,5.235-9.871,11.315-1.879,5.8,2.39,9.458.241,13.24-2.451,4.315-10.988-.106-14.685,3.852a7.361,7.361,0,0,0-1.614,5.4c30.445,1.707,39.628-1.612,40.854-5.878C2124.811,1217.661,2122.208,1211.983,2118.394,1210.612Z" transform="translate(-2018.127 -1169.63)" opacity="0.3" fill="url(#linear-gradient-57)" style="mix-blend-mode: multiply;isolation: isolate"/>
        <path id="Path_84" data-name="Path 84" d="M1988.051,1188.874c1.2-6.059,11-7.712,11.074-14.2.069-5.795-7.7-7.571-9.63-14.926a15.836,15.836,0,0,1,1.3-10.478,12.858,12.858,0,0,0-5.632,5.423c-3.255,6.744,3.591,14.825.482,17.574-3.215,2.842-11.5-4.94-14.686-2.408-3.771,3,.377,19.852,12.278,28.407a31.007,31.007,0,0,0,15.034,5.519C1989.17,1196.806,1987.413,1192.1,1988.051,1188.874Z" transform="translate(-1942.672 -1146.929)" opacity="0.3" fill="url(#linear-gradient-58)" style="mix-blend-mode: multiply;isolation: isolate"/>
      </g>
      <g id="Group_43" data-name="Group 43" transform="translate(1874.419 731.221)">
        <path id="Path_85" data-name="Path 85" d="M2441.794,1547.006c6.674,1.863,14.769,5.324,14.445,7.944-.468,3.771-17.972,2.527-42.611,7.222-22.865,4.357-23.758,8.47-40.444,11.555-32.316,5.974-63.655-3.043-63.554-7.222.094-3.935,27.92,1.819,70.777-10.833C2401.659,1549.4,2419.349,1540.741,2441.794,1547.006Z" transform="translate(-2309.628 -1431.107)" fill="#d8dee8"/>
        <g id="Group_42" data-name="Group 42" transform="translate(16.184 0)">
          <g id="Group_39" data-name="Group 39" transform="translate(66.22)">
            <path id="Path_86" data-name="Path 86" d="M2772.483,1319.493a7.072,7.072,0,0,0,2.554.465c1.964-.019,2.522-.893,4.01-.538a8.629,8.629,0,0,1,2.451,1.2,14.888,14.888,0,0,1-3.028,1.346,8.852,8.852,0,0,1-2.754.311c-1.5-.024-3.045-.049-3.495-.951C2772.137,1321.152,2771.9,1320.576,2772.483,1319.493Z" transform="translate(-2699.589 -1281.145)" fill="url(#linear-gradient-59)"/>
            <g id="Group_38" data-name="Group 38" transform="translate(20.964 49.262)">
              <path id="Path_87" data-name="Path 87" d="M2652.467,1551.516a6.452,6.452,0,0,1,.945,2.124,6.28,6.28,0,0,1,.165,1.115,5.831,5.831,0,0,1-2.863,2.588c-1.008.373-2.838-.239-1.117-1.74s1.96-1.835.908-4.8c-.27-.762-.26-1.059-.145-1.134C2650.626,1549.494,2651.641,1550.567,2652.467,1551.516Z" transform="translate(-2638.612 -1483.572)" fill="url(#linear-gradient-60)"/>
              <path id="Path_88" data-name="Path 88" d="M2679.908,1554.255a6.368,6.368,0,0,1,1.11,3.239,5.834,5.834,0,0,1-2.863,2.588c-1.009.373-2.837-.239-1.117-1.74s1.96-1.835.908-4.8c-.271-.763-.26-1.059-.146-1.134C2678.068,1552.234,2679.082,1553.307,2679.908,1554.255Z" transform="translate(-2656.861 -1485.394)" fill="url(#linear-gradient-61)"/>
              <path id="Path_89" data-name="Path 89" d="M2644.536,1357.454q1.16,5.812,2.319,11.624a110.712,110.712,0,0,0-3.4,12.171,114.1,114.1,0,0,0-1.359,40.6l-2.451,1.359a101.7,101.7,0,0,1-7.4-24.546c-2.081-12.457-1.291-22.279-1.867-22.293-.553-.014-1.79,8.995-1.444,19.223a103.19,103.19,0,0,0,4.174,25.7l-3.088.687a94.409,94.409,0,0,1-10.524-31.241c-1.333-9.006-2.953-20.976,2.664-33.574.561-1.258,2.573-4.077,2.944-4.769C2632.081,1353.476,2637.564,1356.365,2644.536,1357.454Z" transform="translate(-2618.212 -1352.387)" fill="url(#linear-gradient-62)"/>
              <path id="Path_90" data-name="Path 90" d="M2644.361,1381.249a110.755,110.755,0,0,1,3.4-12.171q-1.16-5.812-2.319-11.624c-6.972-1.089-12.455-3.978-19.427-5.067-.372.692-2.383,3.511-2.945,4.769a44.955,44.955,0,0,0-3.5,12.437c13.4-.6,17.369,2.053,18.525,4.589,1.84,4.037-3.187,8.366-1.076,16.59.636,2.474,1.5,3.673,1.7,6.792.267,4.093-1.057,4.536-1.124,8.71-.073,4.568,1.443,8.316,2.687,11.392a39.817,39.817,0,0,0,2.154,4.494l.566-.313A114.1,114.1,0,0,1,2644.361,1381.249Z" transform="translate(-2619.114 -1352.387)" opacity="0.25" fill="url(#linear-gradient-63)" style="mix-blend-mode: multiply;isolation: isolate"/>
            </g>
            <path id="Path_91" data-name="Path 91" d="M2639.509,1205.806c.487.527-.069,1.36.094,4.164a19.79,19.79,0,0,0,.427,3.1c.1.686.2,1.319.313,1.877.082.41.158.728.253,1.066a13.179,13.179,0,0,0,.663,1.832.081.081,0,0,1-.035.1l-.006,0a.082.082,0,0,1-.108-.041,13.419,13.419,0,0,1-.671-1.854c-.1-.342-.173-.664-.257-1.078-.059-.294-.115-.61-.17-.942a8.842,8.842,0,0,0,.529,3.128,5.266,5.266,0,0,1-3.83,7.1c-2.766.408-4.878-1.6-5.535-2.259a9.9,9.9,0,0,1-1.742-11.039C2631.856,1206.135,2638.316,1204.514,2639.509,1205.806Z" transform="translate(-2604.07 -1205.362)" fill="url(#linear-gradient-64)"/>
            <path id="Path_92" data-name="Path 92" d="M2571.838,1274.365c.261,1.61,1.337,7.057,5.512,9.326,6.878,3.738,18.951-3.136,20.374-12.128,1.087-6.872-4.153-14.269-7.05-13.846-3.635.532-1.993,13.161-9.154,16.805C2578.243,1276.189,2574.437,1275.306,2571.838,1274.365Z" transform="translate(-2566.407 -1240.156)" fill="url(#linear-gradient-65)"/>
            <path id="Path_93" data-name="Path 93" d="M2641.469,1210.292a6.127,6.127,0,0,1,1.951-3.6c2.9-2.458,8.071-1.262,11.2.955,3.27,2.32,2.212,4.27,5.462,6.886,3.53,2.841,5.633,1.223,10.4,3.827,1.875,1.024,6.927,3.785,7.768,8.821.726,4.352-1.917,9.059-5.532,11.144-6.188,3.569-14.85-.763-19.177-5.123-4.15-4.183-1.785-5.557-7.926-13.828C2643.389,1216.384,2640.921,1213.674,2641.469,1210.292Z" transform="translate(-2612.663 -1205.328)" fill="url(#linear-gradient-66)"/>
            <path id="Path_94" data-name="Path 94" d="M2616.627,1252.638a29.593,29.593,0,0,1,10.066-2.392c4.4-.246,7.465-.537,9.569,1.264,4.476,3.83-.087,10.938,4.333,20.222.56,1.177,4.388,8.947,11.375,10.472,3.949.862,4.983-1.128,9.569-.9,9.352.459,17.157,9.324,16.106,11.436-.7,1.413-4.865-1.222-8.884,1.224-3.711,2.258-2.535,5.947-6.138,8.826-4.135,3.3-10.3,2.136-13,1.625-5.853-1.109-6.02-3.446-12.82-5.236a38.5,38.5,0,0,0-12.1-1.083c-8.747.47-11.809,3.379-13.361,1.806-3-3.04,9.052-13.287,6.128-25.067-1.074-4.327-3.346-6.233-3.42-11.766A22.364,22.364,0,0,1,2616.627,1252.638Z" transform="translate(-2592.361 -1235.077)" fill="url(#linear-gradient-67)"/>
            <path id="Path_95" data-name="Path 95" d="M2644.856,1232.313c-.537,1.449-.932,3.233-.064,4.312a4.616,4.616,0,0,0,2.107,1.265c1.85.692,2.63.252,3.033.746.885,1.089-.818,5.768-4.309,6.521-3.475.749-7.052-2.75-6.69-4.422.326-1.509,3.833-1.41,4.26-3.318a3.193,3.193,0,0,0-1.034-2.579l-.41.079Z" transform="translate(-2611.01 -1223.274)" fill="url(#linear-gradient-68)"/>
            <path id="Path_96" data-name="Path 96" d="M2655.573,1238.636c-.4-.494-1.182-.055-3.032-.747a4.614,4.614,0,0,1-2.106-1.265c-.868-1.079-.472-2.863.063-4.312l-3.107,2.6.41-.079a3.94,3.94,0,0,1,1.055,1.987,2.91,2.91,0,0,1,.648.47,7.7,7.7,0,0,0-.428,2.477,3.178,3.178,0,0,0,.428,2.094,2.87,2.87,0,0,0,1.816.921,6.266,6.266,0,0,0,3.438-.251C2655.75,1240.99,2656.07,1239.247,2655.573,1238.636Z" transform="translate(-2616.652 -1223.274)" opacity="0.4" fill="url(#linear-gradient-69)" style="mix-blend-mode: multiply;isolation: isolate"/>
            <path id="Path_97" data-name="Path 97" d="M2645.974,1227.853a1.965,1.965,0,0,1-1.934,1.784c-2.165.011-2.405-5.7-1.879-6.028.611-.379,1.145.548,2.566.225.6-.136,1.116-.906,1.419-.077a6.551,6.551,0,0,1,.054,2.614s.514-.424.593.086A1.5,1.5,0,0,1,2645.974,1227.853Z" transform="translate(-2613.017 -1217.332)" fill="url(#linear-gradient-70)"/>
            <path id="Path_98" data-name="Path 98" d="M2642.2,1216.861a2.52,2.52,0,0,0-.59,2.744c.685.982,2.708-.044,3.536,1.157.363.527.341,1.258.529,1.245.156-.01.248-.516.338-.932.495-2.3,1.067-2.555.893-3.212C2646.546,1216.526,2643.606,1215.422,2642.2,1216.861Z" transform="translate(-2612.664 -1212.547)" fill="url(#linear-gradient-71)"/>
            <path id="Path_99" data-name="Path 99" d="M2674.71,1256.3c-.3-3.339-1.378-4.8-.593-5.525,1.213-1.113,5.059,1.234,6.2,1.942,6.346,3.938,8.532,8.355,11.788,11.828,2.818,3.005,7.651,6.6,16.37,8.426l-.963,4.092c-7.8,1.94-12.287.517-14.926-1.083-5.269-3.2-6.639-9.214-12.638-10.111-2.525-.378-4.151.409-5.313-.865C2673.215,1263.453,2675.152,1261.247,2674.71,1256.3Z" transform="translate(-2634.24 -1235.358)" fill="url(#linear-gradient-72)"/>
            <path id="Path_100" data-name="Path 100" d="M2555.628,1308.624a3.55,3.55,0,0,1,1.382-1.941c1.829-1.191,4.723-.156,4.875.812.1.633-.926,1.545-1.9,1.625-.873.072-1.243-.566-2.437-.723A4.149,4.149,0,0,0,2555.628,1308.624Z" transform="translate(-2555.628 -1272.375)" fill="url(#linear-gradient-73)"/>
            <path id="Path_101" data-name="Path 101" d="M2661.542,1311.967c-4.587-.225-5.62,1.765-9.57.9-6.987-1.525-10.814-9.295-11.375-10.472a21.247,21.247,0,0,1-1.809-5.823,3.411,3.411,0,0,0-1.132-.367c-1.5-.2-3.263.6-3.47,1.677-.3,1.544,2.923,2.262,5.146,5.687,1.824,2.812,1,4.033,2.257,6.862,2.881,6.477,10.417,7.282,10.021,9.569-.311,1.8-5.175,2.576-8.486,2.618-7.043.089-8.051-3.151-13-2.889-7.622.4-10.5,8.367-15.618,7.132a5.586,5.586,0,0,1-2.377-1.286c-1.151,2.281-1.748,4.009-.783,4.987,1.552,1.573,4.615-1.336,13.362-1.806a38.505,38.505,0,0,1,12.1,1.083c6.8,1.79,6.966,4.127,12.819,5.236,2.7.511,8.865,1.679,13-1.625,3.6-2.88,2.427-6.568,6.138-8.826,4.02-2.446,8.18.189,8.884-1.224C2678.7,1321.291,2670.893,1312.426,2661.542,1311.967Z" transform="translate(-2592.362 -1265.743)" opacity="0.3" fill="url(#linear-gradient-74)" style="mix-blend-mode: multiply;isolation: isolate"/>
          </g>
          <g id="Group_41" data-name="Group 41" transform="translate(0 7.891)">
            <path id="Path_102" data-name="Path 102" d="M2544.038,1314.031l4.954-3.008a1.058,1.058,0,0,1,.735-.137l4.447.8a.518.518,0,0,1,.21.932l-4.681,3.357a.519.519,0,0,1-.418.084l-5.112-1.176A.464.464,0,0,1,2544.038,1314.031Z" transform="translate(-2481.552 -1283.407)" fill="url(#linear-gradient-75)"/>
            <path id="Path_103" data-name="Path 103" d="M2537.878,1323.1a3.7,3.7,0,0,0,1.8-1.191c.467-.594.385-.938.8-1.648.783-1.332,2.216-2.071,2.463-1.849.228.2-.661,1.108-.3,1.727.165.279.692.419,1.74.687.388.1.715.17.951.219a5.206,5.206,0,0,1-4.177,2.952Z" transform="translate(-2477.604 -1288.396)" fill="url(#linear-gradient-76)"/>
            <path id="Path_104" data-name="Path 104" d="M2370.1,1282.97c-.612.232-9.942,3.942-11.86,13.681-.155.787-1.654,9.154,4.02,15.065,6.363,6.628,18.615,6.464,23.478.923a9.945,9.945,0,0,0,2.067-3.928l-1.282-3.4a8.343,8.343,0,0,0-4.829-2.615c-2.8-.691-4.919.558-6.524-.794a4.225,4.225,0,0,1-1.222-2.785c-.537-3.275,1.311-5.291,1.446-7.31.1-1.51.629-4.818-1.342-6.974A6.361,6.361,0,0,0,2370.1,1282.97Z" transform="translate(-2357.943 -1264.853)" fill="url(#linear-gradient-77)"/>
            <path id="Path_105" data-name="Path 105" d="M2376.158,1605.5c-.109-.6-2.045-1.142-3-.339-.476.4-.8,1.207-.529,1.571.1.133-.311.367.083.371C2374.013,1607.115,2376.266,1606.092,2376.158,1605.5Z" transform="translate(-2367.64 -1478.846)" fill="url(#linear-gradient-78)"/>
            <path id="Path_106" data-name="Path 106" d="M2373.359,1597.838l-1.991-.281c.923-1.11.752-4.647.752-4.647l2.117.472s-.241.971-.652,2.4A9.392,9.392,0,0,0,2373.359,1597.838Z" transform="translate(-2366.871 -1470.969)" fill="url(#linear-gradient-79)"/>
            <path id="Path_107" data-name="Path 107" d="M2372.208,1606.355s-2.4-.552-2.657-.077-.46,1.749,1.061,1.708S2372.343,1606.759,2372.208,1606.355Z" transform="translate(-2365.543 -1479.732)" fill="url(#linear-gradient-80)"/>
            <path id="Path_108" data-name="Path 108" d="M2458.018,1612.641c-.192-.578-2.185-.844-3.021.085-.416.461-.627,1.307-.3,1.63.118.118-.256.406.134.356C2456.12,1614.544,2458.208,1613.216,2458.018,1612.641Z" transform="translate(-2422.179 -1483.742)" fill="url(#linear-gradient-81)"/>
            <path id="Path_109" data-name="Path 109" d="M2455.031,1605.831h-2.011c.758-1.229.094-4.707.094-4.707l2.163.172s-.1.995-.309,2.47A9.389,9.389,0,0,0,2455.031,1605.831Z" transform="translate(-2421.171 -1476.432)" fill="url(#linear-gradient-82)"/>
            <path id="Path_110" data-name="Path 110" d="M2406.675,1384.914a93.037,93.037,0,0,1,3.118,14.271c2.443,17.768-2.749,18.335-1.78,38.025.31,6.285-5.445,20.777-5.951,21.1a6.25,6.25,0,0,1-.8.031,7.956,7.956,0,0,1-2.027-.338c-.911-.157-4.2-9.059-3.435-14.351.539-3.746.382-7.766.07-15.806-.051-1.3-3.384-25.346-3.384-25.346-1.013,8.9-2.179,16.462-3.191,22.324-3.248,18.836-13.807,30.236-14.358,30.419a2.237,2.237,0,0,1-1.91-.131,1.318,1.318,0,0,1-.483-.544c-.282-.221.083-18.805,3.3-32.792,4.676-20.3,2.64-25.051,4.121-34.119C2381.254,1379.809,2406.675,1384.914,2406.675,1384.914Z" transform="translate(-2367.604 -1331.562)" fill="url(#linear-gradient-83)"/>
            <path id="Path_111" data-name="Path 111" d="M2394.844,1277.782c3.1-.091,10.238-1.187,14.168,2.349.068.062-.737.492-.341.956a25.725,25.725,0,0,1,2.775,3.981,26.775,26.775,0,0,1,2.331,5.768,49.537,49.537,0,0,1,1.841,10.064c.718,9.446.006,13.8-.64,16.769a32.7,32.7,0,0,1-18.654,2.74,29.116,29.116,0,0,1-9.3-3.064c2.236-6.769.482-10.392-.345-13.731-1.18-4.76-1.2-4.4-2.17-8.183-1.6-6.24-1.866-12.616-.765-13.921C2386.713,1277.991,2392.065,1277.863,2394.844,1277.782Z" transform="translate(-2374.656 -1261.249)" fill="url(#linear-gradient-84)"/>
            <path id="Path_112" data-name="Path 112" d="M2454.02,1614.29s-2.45-.211-2.641.3-.211,1.8,1.289,1.543S2454.211,1614.671,2454.02,1614.29Z" transform="translate(-2420.02 -1485.159)" fill="url(#linear-gradient-85)"/>
            <g id="Group_40" data-name="Group 40" transform="translate(15.476)">
              <path id="Path_113" data-name="Path 113" d="M2417.589,1253.229a5.393,5.393,0,0,0,.437-3.884c-.4-1.68-.554-1.935-.866-2.29l-.441-.467-.056-.04a6.315,6.315,0,0,0-1.7-.566c-.789-.039-2.4,2.792-3.316,7.154q-.112.234-.221.472c-.457.99-.848,1.964-1.184,2.912-5.335.451-6.076,1.077-6.1,1.439-.05.761,2.99,1.64,5.276,1.975,4.986.73,10.111-.585,10.088-1.515-.01-.4-1-.932-5.229-1.486q.149-1.049.3-2.1C2414.918,1254.759,2416.881,1254.427,2417.589,1253.229Z" transform="translate(-2404.141 -1240.255)" fill="url(#linear-gradient-86)"/>
              <path id="Path_114" data-name="Path 114" d="M2427.779,1234.409a5.184,5.184,0,0,1-1.748,2.731,2.311,2.311,0,0,0-.624.4.728.728,0,0,0-.118.137c-.515.762.556,2.106.2,2.414-.259.223-1.07-.384-1.241-.177s.47.855.284,1.089c-.141.177-.556-.13-.931.1-.186.114-.176.247-.455.673a4.291,4.291,0,0,1-.495.633c-.669.66-2.05.6-2.218.218-.047-.106.033-.163.04-.475a2.435,2.435,0,0,0-.1-.653,6.271,6.271,0,0,0-1.247-1.664,4.466,4.466,0,0,1-1.147-2.315c-.011-.1-.015-.173-.018-.226a5.127,5.127,0,0,1,1.007-3.28c1.136-1.29,2.616-.139,4.376-1.248,2.029-1.279,1.709-3.852,2.633-3.881C2427,1228.853,2428.444,1231.947,2427.779,1234.409Z" transform="translate(-2413.328 -1228.884)" fill="#26264f"/>
              <path id="Path_115" data-name="Path 115" d="M2437.1,1260.445c-.207-.536-.893-.267-1.052.313a1.1,1.1,0,0,0,.82,1.365C2437.448,1262.153,2437.381,1261.167,2437.1,1260.445Z" transform="translate(-2425.34 -1249.68)" fill="url(#linear-gradient-87)"/>
            </g>
            <path id="Path_116" data-name="Path 116" d="M2390.821,1349.53h-.02a.181.181,0,0,1-.159-.2,18.681,18.681,0,0,0-.918-7.783c-.147-.516-.29-1.016-.412-1.51-.67-2.7-.963-3.746-1.273-4.85-.2-.721-.411-1.463-.735-2.705a.181.181,0,0,1,.13-.22.179.179,0,0,1,.22.129c.323,1.24.531,1.979.733,2.7.311,1.107.6,2.152,1.276,4.861.121.49.263.986.409,1.5a18.978,18.978,0,0,1,.929,7.922A.18.18,0,0,1,2390.821,1349.53Z" transform="translate(-2377.464 -1297.628)" fill="#9b305e"/>
            <path id="Path_117" data-name="Path 117" d="M2437.866,1257.908l.495,1.188s.5,1.425,1.148.891c.534-.437.632-.4.65-.369,0,.006,0,.013,0,.013s.015-.285.02-.535a4.58,4.58,0,0,1,.277,1.564,2.547,2.547,0,0,1-.515,1.9,1.956,1.956,0,0,1-1.347.574,5.18,5.18,0,0,1-1.425-.535,6.882,6.882,0,0,0,1.624-.812c.215-.592-.539-1.144-.832-2.554A5.171,5.171,0,0,1,2437.866,1257.908Z" transform="translate(-2410.633 -1248.186)" fill="#26264f"/>
            <path id="Path_118" data-name="Path 118" d="M2473.811,1298.781a6.213,6.213,0,0,1,2.036,2.533,18.807,18.807,0,0,1-6.57,8.185,19.345,19.345,0,0,1-22.154-.464c-7.75-5.921-9.046-17.276-5.79-22.139.375-.56,1.607-2.4,3.519-2.611,1.208-.134,2.853.364,5.45,3.406,5.413,6.337,3.5,10.294,6.7,12.148C2461.8,1302.619,2468.921,1295.36,2473.811,1298.781Z" transform="translate(-2412.289 -1265.714)" fill="url(#linear-gradient-88)"/>
            <path id="Path_119" data-name="Path 119" d="M2454.2,1343.663a.172.172,0,0,1-.038,0c-.078-.016-7.731-1.775-11.166-11.251a.18.18,0,1,1,.339-.123c3.368,9.291,10.828,11.006,10.9,11.022a.18.18,0,0,1,.139.214A.182.182,0,0,1,2454.2,1343.663Z" transform="translate(-2414.498 -1297.568)" fill="#9b305e"/>
          </g>
        </g>
      </g>
      <g id="Group_50" data-name="Group 50" transform="translate(2191.46 734.26)">
        <path id="Path_120" data-name="Path 120" d="M3301.464,1563c-15.436,1.841-41.527,6.935-41.407,12.518.08,3.712,11.743,7.472,22.148,7.7,14.663.326,19.533-6.517,40.444-12.519,18.537-5.32,29.879-4.3,29.852-5.777C3352.459,1562.743,3327.917,1559.842,3301.464,1563Z" transform="translate(-3258.726 -1445.3)" fill="#d8dee8"/>
        <g id="Group_49" data-name="Group 49" transform="translate(0 0)">
          <path id="Path_121" data-name="Path 121" d="M3310.988,1582.121l-1.474,8.589a2.386,2.386,0,0,0,1.615,1.089,2.614,2.614,0,0,0,2-.887,29.314,29.314,0,0,1,1.692-8.791Z" transform="translate(-3291.616 -1458.943)" fill="url(#linear-gradient-89)"/>
          <path id="Path_122" data-name="Path 122" d="M3326.737,1362.478c-3.965,8.327-6.012,20.412-8.813,34.132-2.516,12.324-3.778,31.713-4.64,40.279.789.554,3.718,2.349,4.027,1.215,10.865-39.887,17.168-51.951,19.479-54.349,1.421-1.474,4.734-4.619,5-9.037a4.048,4.048,0,0,0-.009-.554C3341.294,1368.049,3329.523,1363.485,3326.737,1362.478Z" transform="translate(-3294.124 -1312.875)" fill="url(#linear-gradient-90)"/>
          <path id="Path_123" data-name="Path 123" d="M3330.333,1363.931c-1.563-.7-2.879-1.193-3.6-1.453-3.965,8.327-6.012,20.412-8.813,34.132-2.516,12.324-3.778,31.713-4.64,40.279.181.127.478.321.828.529,4.983-18.24,3.83-36.926,14.86-54.023C3332.939,1377.266,3331.922,1370.682,3330.333,1363.931Z" transform="translate(-3294.124 -1312.875)" fill="url(#linear-gradient-91)"/>
          <g id="Group_44" data-name="Group 44" transform="translate(37.059 58.986)">
            <path id="Path_124" data-name="Path 124" d="M3488.294,1519.818a2,2,0,0,1,2.347.44c1.232,1.428-.236,4.455-.875,5.777-.725,1.5-2.126,5.636-4.157,4.773-.9-.385-.214-3.109.255-3.935a8.156,8.156,0,0,0,.814-3.426,6.443,6.443,0,0,1,.4-1.613C3487.36,1521.127,3487.524,1520.139,3488.294,1519.818Z" transform="translate(-3445.489 -1476.366)" fill="url(#linear-gradient-92)"/>
            <path id="Path_125" data-name="Path 125" d="M3485.943,1522.264c-.668,1.177-2.956-.593-4.122-1.059s-1.345-.038-.823-.986,1.207-1.874,2.477-1.312S3486.611,1521.086,3485.943,1522.264Z" transform="translate(-3442.531 -1475.776)" fill="url(#linear-gradient-93)"/>
            <path id="Path_126" data-name="Path 126" d="M3367.084,1393.5c-.067.11-.448-.048-.353.685.644,4.984,16.259,35.067,19.068,35.908.32.1,16.212,4.941,20.89,7.229,2.3-1.989,1.064-3.8.456-4.558-1.7-1.242-16.533-9.641-17.53-9.765-1.517-5.247-.718-29.683-7.6-32.175C3380.644,1390.326,3369.313,1389.862,3367.084,1393.5Z" transform="translate(-3366.716 -1390.488)" fill="url(#linear-gradient-94)"/>
          </g>
          <path id="Path_127" data-name="Path 127" d="M3292.412,1599.073c.293-.483,2.469-.418,3.606.1,1.906.863,3.111,2.573,3.6,2.783a2.97,2.97,0,0,0,2.178-.062,1.608,1.608,0,0,1-.4,2.18C3300.163,1604.864,3290.6,1602.06,3292.412,1599.073Z" transform="translate(-3280.092 -1469.998)" fill="#444b8c"/>
          <path id="Path_128" data-name="Path 128" d="M3331.732,1308.481c1.986-13.528,1.2-22.892.025-29.091-.092-.482-.23-1.192-.409-2.047-1.664-7.972-2.862-9.554-2.351-11.653.82-3.363,5.277-4.976,7.584-5.81,9.031-3.267,22.987-1.547,27.649,6.434,3.47,5.942-2.212,8.5-.336,23.673.469,3.787,1.425,8.5,0,14.775a32.124,32.124,0,0,1-2.306,6.647,39.37,39.37,0,0,1-8.769,1.422A45.029,45.029,0,0,1,3331.732,1308.481Z" transform="translate(-3304.494 -1243.605)" fill="url(#linear-gradient-95)"/>
          <path id="Path_129" data-name="Path 129" d="M3369.9,1272.864a13.581,13.581,0,0,0-4.8-4.7,37.847,37.847,0,0,1-1.748,18.129c-1.569,4.325-3.307,9.117-8.059,11.249-6.294,2.825-13.039-1.188-14.1-1.846a17.239,17.239,0,0,1-2.785-2.148,98.243,98.243,0,0,1-1,21.482,45.035,45.035,0,0,0,21.087,4.35,39.38,39.38,0,0,0,8.769-1.422,32.056,32.056,0,0,0,2.306-6.648c1.425-6.274.469-10.988,0-14.775C3367.683,1281.368,3373.365,1278.805,3369.9,1272.864Z" transform="translate(-3310.159 -1250.155)" opacity="0.3" fill="url(#linear-gradient-96)" style="mix-blend-mode: multiply;isolation: isolate"/>
          <g id="Group_45" data-name="Group 45" transform="translate(30.529)">
            <path id="Path_130" data-name="Path 130" d="M3349.807,1223.193a2.9,2.9,0,0,1-1.17-.42,3.12,3.12,0,0,1-1.26-1.711,4.526,4.526,0,0,1-.03-2.221,3.167,3.167,0,0,1,.44-1.541c.444-.615.851-.424,1.6-1.04.989-.814.776-1.557,1.521-1.8.519-.17.674.172,1.781.12.7-.033.71-.176,1.26-.18.8-.006,1,.289,2.1.6,1.442.409,1.719.082,2.1.48.624.65-.019,1.62.66,2.281.452.44.865.136,1.321.6s.154.884.54,2.021c.345,1.015.711,1.046.72,1.7.005.363-.106.425-.63,1.681-.547,1.312-.462,1.331-.69,1.62-.517.655-.867.447-1.711,1.2-.81.723-.788,1.182-1.29,1.26-.564.089-.722-.467-1.561-.54-.735-.064-.965.332-1.441.18-.615-.2-.766-1.024-1.02-1.621C3352.7,1225.051,3351.891,1224.023,3349.807,1223.193Z" transform="translate(-3347.223 -1214.399)" fill="#26264f"/>
            <path id="Path_131" data-name="Path 131" d="M3362.707,1239.226c-.721,2.038-.684,3.977.553,5.47,1.089,1.314,2.661,1.148,2.707,1.767.091,1.222-7.01,2.981-7.405,2.069-.194-.45,2.05-1.126,2.21-2.657.067-.637-.162-1.116-1.5-3.588l-.573.119Z" transform="translate(-3354.756 -1230.91)" fill="url(#linear-gradient-97)"/>
            <path id="Path_132" data-name="Path 132" d="M3358.968,1238.462a2.24,2.24,0,0,1-2.175,2.066c-2.469.049-2.837-6.462-2.243-6.843.69-.442,1.314.607,2.93.215.68-.165,1.257-1.051,1.616-.11a7.463,7.463,0,0,1,.1,2.979s.579-.492.678.088A1.707,1.707,0,0,1,3358.968,1238.462Z" transform="translate(-3351.93 -1227.01)" fill="url(#linear-gradient-98)"/>
          </g>
          <g id="Group_47" data-name="Group 47" transform="translate(0 0.276)">
            <path id="Path_133" data-name="Path 133" d="M3267.913,1294.521l13.084,2.132a3.99,3.99,0,0,0,.961.04l1.24-.1-.206-26.99-15-.532a2.1,2.1,0,0,0-2.178,2.1v20.875A2.5,2.5,0,0,0,3267.913,1294.521Z" transform="translate(-3262.554 -1251.034)" fill="url(#linear-gradient-99)"/>
            <path id="Path_134" data-name="Path 134" d="M3331.672,1267.82v24.352a1.49,1.49,0,0,1-1.3,1.478l-16.542,2.15a1.172,1.172,0,0,1-1.264-1.168v-24.489a1.245,1.245,0,0,1,1.237-1.244Z" transform="translate(-3293.647 -1250.201)" fill="url(#linear-gradient-51)"/>
            <path id="Path_135" data-name="Path 135" d="M3264.1,1270.505l16.848,1.1v-2.8l-16.848-.993Z" transform="translate(-3261.417 -1250.201)" fill="#d8dee8"/>
            <path id="Path_136" data-name="Path 136" d="M3322.96,1269.624a6.871,6.871,0,0,1,2.632,1.781c2.058,2.274,1.787,5.378,1.71,6.291-.369,4.394-3.332,6.842-2.528,7.684.552.578,2.263-.245,2.8-.5a7.444,7.444,0,0,0,3.491-3.731c.14.422.311.973.482,1.625.558,2.134.438,2.777.662,2.829.688.158,4.059-5.434,2.949-11.556a14.06,14.06,0,0,0-1.926-4.928Z" transform="translate(-3300.559 -1251.063)" opacity="0.72" fill="url(#linear-gradient-101)" style="mix-blend-mode: multiply;isolation: isolate"/>
            <path id="Path_137" data-name="Path 137" d="M3314.4,1268.813v2.8l18.982-1.4v-2.391Z" transform="translate(-3294.865 -1250.201)" fill="#f4f7fa"/>
            <path id="Path_138" data-name="Path 138" d="M3264.1,1266.179l16.848-.826,18.982.826-18.982.993Z" transform="translate(-3261.417 -1248.561)" fill="#d8dee8"/>
            <path id="Path_139" data-name="Path 139" d="M3264.1,1266.179l16.848-.826,18.982.826-18.982.993Z" transform="translate(-3261.417 -1248.561)" fill="#d8dee8" opacity="0.3" style="mix-blend-mode: multiply;isolation: isolate"/>
            <path id="Path_140" data-name="Path 140" d="M3256.6,1247.05c.433-.66,1.911-2.743,3.9-2.722,1.2.013,2.24.916,4.268,2.722,1.72,1.532,2.022,2.1,2.759,2.722,1.33,1.121,3.745,2.13,8.5,1.324a18.889,18.889,0,0,1-3.973.846c-2.142.219-5.322.545-8.314-1-2.188-1.131-3.181-2.7-4.562-2.309a12.282,12.282,0,0,0-2.324,1.065c-.325.189-.587.359-.766.48.034-.095.094-.253.184-.442.7-1.48,1.85-1.957,1.729-2.354C3257.951,1247.223,3257.689,1247.041,3256.6,1247.05Z" transform="translate(-3256.085 -1234.579)" fill="url(#linear-gradient-102)"/>
            <path id="Path_141" data-name="Path 141" d="M3291.743,1232.6a10.26,10.26,0,0,1-6.916-1.692c-3.637-2.614-4.9-7.765-3.752-8.682.974-.774,3.506,1.6,4.489.735.95-.84-1.143-3.31-.148-5.371.967-2,4.593-3.088,6.623-1.839,2,1.232,1.856,4.371,1.691,7.946A26.688,26.688,0,0,1,3291.743,1232.6Z" transform="translate(-3272.429 -1215.224)" fill="url(#linear-gradient-103)"/>
            <path id="Path_142" data-name="Path 142" d="M3311.389,1240.463c-1.338-2.158-1.323-3.571-1.012-4.488.876-2.587,4.587-2.668,5.5-5.739.405-1.36-.091-2.125.589-2.722,1.07-.939,3.871-.433,4.782,1.1,1.372,2.314-1.9,6.362-.883,7.137.49.373,1.3-.527,2.354-.147a3.023,3.023,0,0,1,1.692,3.09C3324.03,1240.026,3321.127,1241.055,3311.389,1240.463Z" transform="translate(-3292.076 -1223.082)" fill="url(#linear-gradient-104)"/>
            <g id="Group_46" data-name="Group 46" transform="translate(22.17 17.619)" opacity="0.3" style="mix-blend-mode: multiply;isolation: isolate">
              <path id="Path_143" data-name="Path 143" d="M3338.614,1267.82l-16.347.855a6.933,6.933,0,0,1,2.865,1.868,6.448,6.448,0,0,1,.5.624l12.985-.956Z" transform="translate(-3322.267 -1267.82)" fill="#d8dee8"/>
            </g>
            <path id="Path_144" data-name="Path 144" d="M3319.107,1281.56c-.848-.421,3.344-6.349,1.218-10.428-1.577-3.026-6.141-4.1-6.662-4.213-1.818-.406-3.357-.257-3.359-.386a18.25,18.25,0,0,1,5.419-.35c3.2.125,5.083.225,6.769,1.545a7.589,7.589,0,0,1,2.281,3.237c1.9,4.428.269,9.289-.294,9.271-.463-.015-.479-3.331-1.251-3.385-.543-.038-.778,1.585-2.5,3.458C3320.153,1280.932,3319.428,1281.719,3319.107,1281.56Z" transform="translate(-3292.142 -1249.097)" fill="url(#linear-gradient-105)"/>
            <path id="Path_145" data-name="Path 145" d="M3326.134,1236.1c-1.057-.38-1.865.52-2.354.147-1.017-.775,2.255-4.822.883-7.137a3.293,3.293,0,0,0-1.79-1.327,3.592,3.592,0,0,1,.392,2.872c-.572,1.578-2.414,1.6-3.017,3.458-.574,1.771.731,2.891.074,4.046-.75,1.319-3.358-.032-4.488,1.178a2.243,2.243,0,0,0-.493,1.649c9.3.522,12.112-.492,12.485-1.8A3.022,3.022,0,0,0,3326.134,1236.1Z" transform="translate(-3295.49 -1223.579)" opacity="0.3" fill="url(#linear-gradient-106)" style="mix-blend-mode: multiply;isolation: isolate"/>
            <path id="Path_146" data-name="Path 146" d="M3286.3,1229.46c.367-1.851,3.361-2.356,3.385-4.341.021-1.771-2.354-2.314-2.943-4.562a4.837,4.837,0,0,1,.4-3.2,3.937,3.937,0,0,0-1.721,1.658c-1,2.061,1.1,4.531.148,5.371-.982.869-3.515-1.51-4.489-.736-1.152.917.115,6.067,3.752,8.682a9.477,9.477,0,0,0,4.595,1.687C3286.64,1231.885,3286.1,1230.446,3286.3,1229.46Z" transform="translate(-3272.429 -1216.641)" opacity="0.3" fill="url(#linear-gradient-107)" style="mix-blend-mode: multiply;isolation: isolate"/>
          </g>
          <g id="Group_48" data-name="Group 48" transform="translate(18.916 18.501)">
            <path id="Path_147" data-name="Path 147" d="M3319.981,1342.754s-4.566-1.095-6.421-.016-1,5.463,1.38,4.987a26.645,26.645,0,0,0,6-2.559Z" transform="translate(-3312.554 -1317.932)" fill="url(#linear-gradient-108)"/>
            <path id="Path_148" data-name="Path 148" d="M3359.839,1269.7s2.361-.112,3.2,1.631a6.815,6.815,0,0,1,.723,2.361c.329,10.344.493,15.517-.248,17.253-2.461,5.765-8.406,11.588-15.146,12.158,0,0-2.645.224-16.4-5.239l-.88-4.264c10.975,1.276,15.726-1.265,18-4,4.893-5.89,1.559-16.577,7.08-19.366A6.35,6.35,0,0,1,3359.839,1269.7Z" transform="translate(-3324.88 -1269.629)" fill="url(#linear-gradient-109)"/>
          </g>
          <path id="Path_149" data-name="Path 149" d="M3375.1,1306.17a.271.271,0,0,1-.118-.515c6.766-3.249,6.488-14.8,6.484-14.915a.271.271,0,1,1,.542-.017,28,28,0,0,1-.7,6.392c-1.044,4.494-3.151,7.616-6.093,9.029A.271.271,0,0,1,3375.1,1306.17Z" transform="translate(-3335.053 -1264.981)" fill="url(#linear-gradient-110)" style="mix-blend-mode: soft-light;isolation: isolate"/>
        </g>
      </g>
      <g id="Group_64" data-name="Group 64" transform="translate(2057.945 810.67)">
        <path id="Path_150" data-name="Path 150" d="M2884.021,1656.256c-24.989-.263-26.294,1.567-26.481,2.408-.861,3.858,15.9,13.349,33.7,14.925,10.529.933,19.217-1.143,36.592-5.3,11.586-2.769,17.378-4.154,17.333-5.778C2945.042,1657.922,2902.635,1656.452,2884.021,1656.256Z" transform="translate(-2857.508 -1584.638)" fill="#d8dee8"/>
        <g id="Group_63" data-name="Group 63" transform="translate(19.893)">
          <g id="Group_53" data-name="Group 53" transform="translate(9.606)">
            <g id="Group_52" data-name="Group 52">
              <path id="Path_151" data-name="Path 151" d="M2952.14,1518.072c-2.278.462-7.866-7-6.3-13.16,1.727-6.771,10.574-5.921,13.357-13.3,2.273-6.029-2.734-8.717-1.115-16.944a21.81,21.81,0,0,1,10.224-14.308c6.906-3.855,11.515-.223,16-4.264,5.279-4.756,2.664-13.181,4.7-13.572,2.965-.568,12.667,16.433,7.1,24.615-4.682,6.878-16.1,1.561-21.87,9.232-4.853,6.451,1.421,12.6-3.969,20.208-4.438,6.265-11.106,4.661-15.015,11.965C2952.591,1513.527,2953.779,1517.739,2952.14,1518.072Z" transform="translate(-2945.57 -1442.506)" fill="url(#linear-gradient-5)"/>
              <g id="Group_51" data-name="Group 51" clip-path="url(#clip-path-5)">
                <path id="Path_152" data-name="Path 152" d="M2968.09,1504.565l-.133-.143c6.638-6.222,10.778-13.109,12.305-20.469a41.655,41.655,0,0,0,.634-10.58c-.138-3.941-.247-7.053,2.218-9.348,2.433-2.266,5.572-2.158,8.894-2.043,3.63.125,7.383.255,10.56-2.712,3.155-2.947,3.793-7.2,4.066-9.023a20.678,20.678,0,0,0-3.554-14.444l.16-.111a20.876,20.876,0,0,1,3.587,14.584c-.276,1.839-.921,6.143-4.126,9.137-3.236,3.022-7.03,2.891-10.7,2.765-3.281-.114-6.381-.22-8.754,1.99-2.4,2.235-2.3,5.156-2.156,9.2a41.8,41.8,0,0,1-.638,10.626C2978.918,1491.394,2974.758,1498.315,2968.09,1504.565Z" transform="translate(-2960.458 -1437.975)" fill="#fff" opacity="0.5" style="mix-blend-mode: soft-light;isolation: isolate"/>
                <path id="Path_153" data-name="Path 153" d="M3060.328,1478.829a2.207,2.207,0,0,1-1.231-.86c-.589-.918-.036-2.024.606-3.3a8.622,8.622,0,0,0,1.277-4.769c-.245-2.575-2.265-5.061-6-7.386l.1-.166c3.793,2.36,5.844,4.895,6.1,7.533a8.9,8.9,0,0,1-1.3,4.876c-.64,1.277-1.146,2.287-.616,3.111,1.029,1.6,4.871.926,6.717.6a25.891,25.891,0,0,0,11.971-5.658l.124.151a26.087,26.087,0,0,1-12.061,5.7C3064.582,1478.909,3061.983,1479.364,3060.328,1478.829Z" transform="translate(-3018.328 -1455.698)" fill="#fff" opacity="0.5" style="mix-blend-mode: soft-light;isolation: isolate"/>
                <path id="Path_154" data-name="Path 154" d="M3002.821,1504.412l-.045-.055a7.736,7.736,0,0,1-1.845-4.17c-.279-2.926,1.5-5.368,3.069-7.523,1.451-1.991,2.7-3.711,2.106-5.379a4.28,4.28,0,0,0-2.671-2.289l.073-.181a4.457,4.457,0,0,1,2.782,2.4c.633,1.766-.649,3.524-2.131,5.56-1.549,2.126-3.305,4.537-3.033,7.389a7.518,7.518,0,0,0,1.756,4.01,16.129,16.129,0,0,1,5.79-1.153,18,18,0,0,1,12.179,5.063l-.134.142a17.794,17.794,0,0,0-12.042-5.009,15.94,15.94,0,0,0-5.786,1.165Z" transform="translate(-2982.367 -1470.642)" fill="#fff" opacity="0.5" style="mix-blend-mode: soft-light;isolation: isolate"/>
                <path id="Path_155" data-name="Path 155" d="M2963.437,1566.59l-.034-.033c-.168-.166-16.768-16.644-17.521-17.162l.111-.161c.758.521,16.455,16.1,17.514,17.151l25.712-3.186.024.194Z" transform="translate(-2945.778 -1513.482)" fill="#fff" opacity="0.5" style="mix-blend-mode: soft-light;isolation: isolate"/>
              </g>
            </g>
          </g>
          <g id="Group_56" data-name="Group 56" transform="translate(0 47.664)">
            <g id="Group_55" data-name="Group 55">
              <path id="Path_157" data-name="Path 157" d="M2933.125,1618.007a21.962,21.962,0,0,1-5.588-2.947c-2.249-1.641-4.4-3.21-5.222-5.843-.95-3.041.942-4-.009-6.782-1.081-3.167-3.949-2.843-5.068-6.133-.76-2.233-.109-4.353.467-6.227.69-2.247,2.261-5.477,3.287-5.268,1.217.247-.417,4.9,2.351,8.115,2.095,2.431,4.531,1.5,6.6,4.339a7.434,7.434,0,0,1,1.5,5.087c-.418,3.138-2.921,3.971-3.516,6.57C2927.508,1610.773,2928.2,1613.628,2933.125,1618.007Z" transform="translate(-2916.892 -1584.797)" fill="url(#linear-gradient-6)"/>
              <g id="Group_54" data-name="Group 54" clip-path="url(#clip-path-6)">
                <path id="Path_158" data-name="Path 158" d="M2938.559,1616.306c-.446-.427-1.042-.936-1.672-1.474-2.767-2.363-6.556-5.6-6.141-8.661.219-1.612.494-2.867.715-3.876.428-1.946.686-3.121.087-4.646a6.73,6.73,0,0,0-3.367-3.387,7.99,7.99,0,0,1-3.351-3.055c-1.38-2.545-.989-6.121,1.165-10.628l.176.084c-2.124,4.448-2.518,7.964-1.169,10.451a7.833,7.833,0,0,0,3.28,2.98,6.975,6.975,0,0,1,3.449,3.484c.62,1.58.357,2.777-.078,4.759-.221,1-.5,2.256-.713,3.86-.4,2.956,3.341,6.152,6.074,8.485.632.54,1.229,1.051,1.681,1.481Z" transform="translate(-2921.635 -1581.993)" fill="#fff" opacity="0.3" style="mix-blend-mode: soft-light;isolation: isolate"/>
                <path id="Path_159" data-name="Path 159" d="M2920.02,1603.309a7.2,7.2,0,0,1-2.608-1.488c-3.077-2.755-2.372-7.032-2.341-7.213l.193.034c-.031.176-.719,4.349,2.278,7.034a7.365,7.365,0,0,0,4.42,1.808,4.776,4.776,0,0,1-1.339-3.777,4.633,4.633,0,0,1,1.615-2.925l.126.15a4.436,4.436,0,0,0-1.547,2.8,4.64,4.64,0,0,0,1.462,3.792l.2.179-.266-.009A8.069,8.069,0,0,1,2920.02,1603.309Z" transform="translate(-2915.621 -1591.322)" fill="#fff" opacity="0.3" style="mix-blend-mode: soft-light;isolation: isolate"/>
                <path id="Path_160" data-name="Path 160" d="M2927.417,1623.993l-.034-.118a6.88,6.88,0,0,0-2.325-3.529c-3.147-2.465-7.213-.872-7.385-.8l-.073-.181c.176-.07,4.344-1.7,7.578.831a7.045,7.045,0,0,1,2.357,3.508,6.153,6.153,0,0,0,2.8-3.736,6.329,6.329,0,0,0-1.512-5.534l.142-.133a6.529,6.529,0,0,1,1.559,5.714,6.367,6.367,0,0,1-3,3.922Z" transform="translate(-2917.363 -1604.415)" fill="#fff" opacity="0.3" style="mix-blend-mode: soft-light;isolation: isolate"/>
                <path id="Path_161" data-name="Path 161" d="M2932.274,1648.7l-.053-.147a8.865,8.865,0,0,0-5.977-5.534l.052-.188a9.059,9.059,0,0,1,6.054,5.51l5.832-5.975.14.136Z" transform="translate(-2923.112 -1623.082)" fill="#fff" opacity="0.3" style="mix-blend-mode: soft-light;isolation: isolate"/>
              </g>
            </g>
          </g>
          <g id="Group_59" data-name="Group 59" transform="translate(3.025 4.834)">
            <g id="Group_58" data-name="Group 58">
              <path id="Path_163" data-name="Path 163" d="M2935.45,1457.016c-1.457.679,1.064,4.58-.021,10.979-1.728,10.174-10.186,12.7-9.463,20.625a17.792,17.792,0,0,0,2.246,7.215c.61.969,1.07,1.421,3.188,4.286.2.266,2.1,2.835,2.559,3.547,3.14,4.818-3.251,11.876-1.311,18.775,1.34,4.765,4.864,8,7.752,10.04-5.42-8.519-5.358-13.981-4.165-17.462,1.658-4.828,5.418-5.619,7.422-11.7,1.4-4.245.093-5.459.126-13.264.052-12.07,3.2-13.378,1.6-20C2943.512,1462.28,2937.269,1456.168,2935.45,1457.016Z" transform="translate(-2925.922 -1456.937)" fill="url(#linear-gradient-7)"/>
              <g id="Group_57" data-name="Group 57" clip-path="url(#clip-path-7)">
                <path id="Path_164" data-name="Path 164" d="M2949.6,1522.365a21.622,21.622,0,0,1-.373-11.2,17.5,17.5,0,0,1,2.634-5.776,13.3,13.3,0,0,0,2.251-5.128c.612-3.249-.287-5.123-1.328-7.294a17.2,17.2,0,0,1-2.048-7.228c-.22-4.492,1.3-7.3,2.78-10.012,1.382-2.543,2.687-4.945,2.648-8.621-.054-5.067-2.768-10.228-8.066-15.342l.136-.141c5.337,5.151,8.071,10.359,8.126,15.48.041,3.727-1.339,6.263-2.671,8.716-1.462,2.69-2.974,5.472-2.757,9.909a17.042,17.042,0,0,0,2.029,7.153c1.056,2.2,1.968,4.1,1.344,7.414a13.461,13.461,0,0,1-2.279,5.2,17.319,17.319,0,0,0-2.609,5.718,21.422,21.422,0,0,0,.371,11.1Z" transform="translate(-2940.673 -1453.405)" fill="#fff" opacity="0.5" style="mix-blend-mode: soft-light;isolation: isolate"/>
                <path id="Path_165" data-name="Path 165" d="M2951.119,1493.029l0-.159a10.094,10.094,0,0,0-8.759-10.337l.027-.194a10.287,10.287,0,0,1,8.929,10.377,10.352,10.352,0,0,0,3.859-3.24,10.881,10.881,0,0,0,1.752-8.019l.192-.033a11.077,11.077,0,0,1-1.787,8.166,10.553,10.553,0,0,1-4.076,3.372Z" transform="translate(-2936.856 -1473.222)" fill="#fff" opacity="0.5" style="mix-blend-mode: soft-light;isolation: isolate"/>
                <path id="Path_166" data-name="Path 166" d="M2939.98,1539.318l-.1-.045a7.4,7.4,0,0,1-4.717-6.948,14,14,0,0,0-.442-2.653,12.148,12.148,0,0,0-5.219-6.437l.109-.161a12.336,12.336,0,0,1,5.3,6.545,14.133,14.133,0,0,1,.449,2.688,7.192,7.192,0,0,0,4.5,6.744,30.294,30.294,0,0,1,8.107-12.8l.134.142a30.074,30.074,0,0,0-8.089,12.825Z" transform="translate(-2928.302 -1500.919)" fill="#fff" opacity="0.5" style="mix-blend-mode: soft-light;isolation: isolate"/>
                <path id="Path_167" data-name="Path 167" d="M2942.454,1578.43l-.034-.167a8.25,8.25,0,0,0-3.476-5.147,8.465,8.465,0,0,0-7.436-.618l-.074-.181a8.672,8.672,0,0,1,7.616.635,8.428,8.428,0,0,1,3.525,5.105,19.487,19.487,0,0,0,3.406-4.122,19.866,19.866,0,0,0,2.8-8.291l.194.021a20.061,20.061,0,0,1-2.832,8.372,19.673,19.673,0,0,1-3.566,4.278Z" transform="translate(-2929.587 -1529.23)" fill="#fff" opacity="0.5" style="mix-blend-mode: soft-light;isolation: isolate"/>
              </g>
            </g>
          </g>
          <g id="Group_62" data-name="Group 62" transform="translate(10.605 37.764)">
            <path id="Path_169" data-name="Path 169" d="M2956.059,1598.739a14.678,14.678,0,0,1-6.276-5.93c-3-5.782-.054-12.522,3.9-15.735,4.936-4.011,8.914-.473,13.574-4.25,5.292-4.29,1.859-10.231,7.361-14.68,3.734-3.02,8.612-2.948,12.925-2.884,5.17.077,13.165,1.426,13.743,3.752.686,2.759-10.227,2.166-13.97,10.095-2.835,6,1.4,10.638-2.278,16.848-.5.841-3.27,5.526-8.727,6.393-7.137,1.133-12.213-5.32-16.575-3.431C2957.967,1589.683,2956.075,1591.928,2956.059,1598.739Z" transform="translate(-2948.552 -1555.241)" fill="url(#linear-gradient-114)"/>
            <g id="Group_61" data-name="Group 61">
              <g id="Group_60" data-name="Group 60" clip-path="url(#clip-path-8)">
                <path id="Path_170" data-name="Path 170" d="M2963.334,1604.683c-3.337-7.406-3.852-12.74-1.529-15.853,1.853-2.483,4.716-2.683,8.032-2.916,3.359-.235,7.165-.5,10.621-3.333,3.156-2.585,3.937-5.537,4.765-8.663.751-2.836,1.528-5.77,4.249-8.359,4.356-4.146,11.668-5.373,21.734-3.647l-.033.192c-10-1.715-17.258-.5-21.567,3.6-2.681,2.552-3.45,5.457-4.195,8.268-.8,3.018-1.626,6.139-4.83,8.764-3.5,2.871-7.344,3.139-10.731,3.376-3.268.229-6.09.427-7.889,2.838-2.277,3.052-1.755,8.319,1.552,15.656Z" transform="translate(-2956.417 -1559.174)" fill="#fff" opacity="0.74" style="mix-blend-mode: soft-light;isolation: isolate"/>
                <path id="Path_171" data-name="Path 171" d="M3023.706,1575.183a1.494,1.494,0,0,1-.237-.1c-1.339-.7-1.315-3.152-1.291-5.527a20.943,20.943,0,0,1,1.708-8.057,22.625,22.625,0,0,1,7.535-9.149l.115.159a22.431,22.431,0,0,0-7.471,9.069,20.739,20.739,0,0,0-1.691,7.981c-.024,2.316-.047,4.711,1.185,5.352,1.944,1.01,5.957-2.851,7.466-4.3l.116-.112a21.082,21.082,0,0,0,2.279-2.64,9.812,9.812,0,0,1,2.9-2.852,10.994,10.994,0,0,1,7.678-1.034l-.033.193a10.8,10.8,0,0,0-7.545,1.009,9.682,9.682,0,0,0-2.849,2.8,21.216,21.216,0,0,1-2.3,2.662l-.116.112C3029.679,1572.173,3025.838,1575.873,3023.706,1575.183Z" transform="translate(-2997.51 -1553.319)" fill="#fff" opacity="0.74" style="mix-blend-mode: soft-light;isolation: isolate"/>
                <path id="Path_172" data-name="Path 172" d="M3001.777,1581.732c-2.109-.682-4.579-2.494-7.384-5.422l-.086-.089.107-.063a11.378,11.378,0,0,0,4.107-4c1.11-1.882,1.288-3.587,1.533-5.948l.02-.193c.73-7.005,1.1-10.522,1.7-12.005,1.182-2.89,3.621-5.346,7.251-7.3l.093.172c-3.589,1.931-6,4.354-7.163,7.2-.6,1.458-.962,4.965-1.69,11.952l-.02.193c-.248,2.385-.427,4.108-1.56,6.027a11.529,11.529,0,0,1-4.071,4.007c4.21,4.371,7.63,6.19,10.166,5.405,1.413-.437,2.187-1.55,3.083-2.838a12.259,12.259,0,0,1,3.815-3.9c2.456-1.486,5.556-1.932,9.212-1.326l-.032.193c-3.609-.6-6.664-.16-9.08,1.3a12.092,12.092,0,0,0-3.756,3.847c-.917,1.318-1.708,2.456-3.186,2.913A5.021,5.021,0,0,1,3001.777,1581.732Z" transform="translate(-2978.98 -1549.569)" fill="#fff" opacity="0.74" style="mix-blend-mode: soft-light;isolation: isolate"/>
                <path id="Path_173" data-name="Path 173" d="M2978.106,1631.81a16.931,16.931,0,0,1-7.751-5.281c-.153-.207-.307-.427-.465-.654a6.388,6.388,0,0,0-3.451-2.99,5.078,5.078,0,0,0-2.979.19l-.128.044v-.136a5.547,5.547,0,0,1,.879-3.222,5.673,5.673,0,0,1,2.873-1.962c1.014-.405,1.89-.755,2.2-1.693a5.552,5.552,0,0,0-.652-4.536l.165-.105a5.752,5.752,0,0,1,.672,4.7c-.339,1.025-1.3,1.408-2.312,1.813a5.517,5.517,0,0,0-2.785,1.891,5.3,5.3,0,0,0-.845,2.976,5.206,5.206,0,0,1,2.962-.151c1.752.46,2.713,1.845,3.562,3.066.157.226.309.445.461.65a16.691,16.691,0,0,0,8.661,5.5c5.381,1.346,10.752-2.618,12.811-4.385l.127.148c-2.082,1.787-7.516,5.795-12.986,4.427C2978.776,1632.015,2978.436,1631.917,2978.106,1631.81Z" transform="translate(-2958.381 -1592.631)" fill="#fff" style="mix-blend-mode: soft-light;isolation: isolate"/>
              </g>
            </g>
          </g>
        </g>
      </g>
    </g>
    <g id="Group_85" data-name="Group 85">
      <circle id="Ellipse_3" data-name="Ellipse 3" cx="53.5" cy="53.5" r="53.5" transform="translate(1634 171)" fill="#14a800"/>
      <circle id="Ellipse_8" data-name="Ellipse 8" cx="46.132" cy="46.132" r="46.132" transform="translate(160.938 248) rotate(45)" fill="#14a800"/>
      <ellipse id="Ellipse_4" data-name="Ellipse 4" cx="21" cy="21.5" rx="21" ry="21.5" transform="translate(1809 364)" fill="#14a800"/>
      <circle id="Ellipse_6" data-name="Ellipse 6" cx="18.532" cy="18.532" r="18.532" transform="translate(149.786 472.161) rotate(45)" fill="#14a800"/>
      <circle id="Ellipse_5" data-name="Ellipse 5" cx="10.5" cy="10.5" r="10.5" transform="translate(1841 224)" fill="#14a800"/>
      <circle id="Ellipse_7" data-name="Ellipse 7" cx="9.069" cy="9.069" r="9.069" transform="translate(255.175 406.92) rotate(45)" fill="#14a800"/>
    </g>
  </g>
</svg>
